<svg width="104" height="131" viewBox="0 0 104 131" fill="none" xmlns="http://www.w3.org/2000/svg">
<path opacity="0.49" d="M86.3164 61.586C87.6977 55.8255 87.2822 49.608 84.8799 43.9212C80.0886 32.5833 64.1267 25.5818 51.742 27.3478C38.9064 29.1751 31.2765 38.4741 30.1481 50.0328C29.384 57.8403 31.5576 65.3979 34.8703 72.3943C36.6552 76.1627 38.5553 81.2799 40.464 84.9666C43.2779 90.391 48.5449 93.9393 55.0134 92.3173C56.4704 91.9512 57.7459 91.0996 58.9904 90.2576C64.6697 86.4298 70.4007 82.5558 75.2966 77.727C80.0113 73.0811 84.7372 68.1578 86.3164 61.586Z" fill="#F1F1EA"/>
<path d="M42.053 31.6167C44.4098 31.3593 46.787 31.3225 49.1536 31.516C54.1624 31.9269 59.0889 33.0193 63.9134 34.4013C70.8196 36.3807 77.6728 38.6289 83.8925 42.1027C78.2589 32.2347 64.2617 25.9302 52.9104 27.0384C47.6192 27.5546 43.1655 29.3815 39.6148 32.1273C40.4318 31.9147 41.2493 31.6978 42.0492 31.612L42.053 31.6167Z" fill="#178781"/>
<path d="M38.2168 37.9242C41.2146 37.7148 44.2287 37.7642 47.2209 38.0299C53.0101 38.5458 58.716 39.6704 64.3733 40.9785C72.2696 42.81 79.707 45.7477 86.5818 49.8023C86.291 48.2043 85.8622 46.6179 85.2847 45.0636C85.0593 44.4621 84.7984 43.8742 84.5154 43.2926C77.5565 39.1823 69.6725 36.6835 61.8854 34.6188C56.7595 33.2576 51.4567 32.1226 46.1262 32.1419C43.6238 32.1488 41.3066 32.4788 38.8784 33.059C38.7031 33.1011 38.5281 33.139 38.3575 33.1774C36.687 34.6745 35.2503 36.3969 34.0647 38.299C35.4464 38.1695 36.8255 38.0227 38.2122 37.928L38.2168 37.9242Z" fill="#199992"/>
<path d="M42.3653 48.0998C49.0329 48.8508 55.6175 49.8718 62.0705 51.7666C68.1371 53.5492 73.9951 55.9962 79.7639 58.5627C81.9364 59.5293 84.1429 60.6237 86.153 61.968C87.0773 58.3465 87.1305 53.4495 86.5771 49.682C79.6006 45.4928 72.3538 42.6988 64.3094 40.8522C58.275 39.4671 52.1642 38.2029 45.9713 37.8302C41.8356 37.581 38.3176 37.7761 34.0696 38.2954C32.5846 40.9128 31.0339 44.7233 30.4882 47.8605C34.3448 47.027 38.4501 47.6588 42.3653 48.0998Z" fill="#1AA8A1"/>
<path d="M40.154 71.4281C44.1863 71.9367 48.1961 72.7087 52.0819 73.901C55.9343 75.0856 59.7048 76.5704 63.2667 78.4668C65.4164 79.6154 67.4421 80.9741 69.5146 82.252C71.1387 81.0415 72.7215 79.7755 74.2286 78.4117C74.5488 78.1229 74.869 77.834 75.1854 77.5405C68.3767 71.6584 60.8738 67.3042 51.9353 65.4181C45.0857 63.9759 38.103 63.5057 31.1719 62.6123C31.8852 65.5646 32.8818 68.4644 34.0665 71.2804C36.0788 71.005 38.1872 71.1723 40.1506 71.4191L40.154 71.4281Z" fill="#1FBCB9"/>
<path d="M51.2847 82.7929C54.9366 83.8885 58.6932 85.3419 62.1192 87.2717C64.4317 85.8098 66.719 84.3026 68.9273 82.6887C67.5488 81.82 66.1809 80.9309 64.7447 80.1249C61.2867 78.1748 57.6625 76.512 53.8894 75.2627C49.8807 73.9336 45.757 72.9357 41.5686 72.3641C39.2865 72.0548 36.761 71.6994 34.3838 71.9891C35.847 75.3048 37.6666 78.4382 39.1938 81.7133C43.0909 80.734 47.6781 81.7148 51.2885 82.7976L51.2847 82.7929Z" fill="#23C9C5"/>
<path d="M31.2111 62.7749C39.0039 63.606 46.3066 64.083 53.9031 65.9612C62.1673 68.0015 68.2532 71.9074 75.1851 77.5448C79.7764 72.8093 84.323 68.4292 86.2389 61.7845C86.2457 61.7595 86.2521 61.7387 86.2589 61.7137C83.703 59.8081 80.7612 58.4162 77.9757 57.2116C72.5853 54.8764 67.2548 52.4572 61.584 50.9035C55.3851 49.2017 49.0962 48.3436 42.678 47.7466C38.7255 47.3789 34.4446 46.665 30.4865 47.8652C30.4827 47.9034 30.4328 48.0568 30.4285 48.0993C29.6181 53.125 30.4111 57.9839 31.2107 62.7792L31.2111 62.7749Z" fill="#15B5AC"/>
<g opacity="0.06">
<path opacity="0.06" d="M66.7675 28.9492C66.4159 28.622 65.868 29.1319 66.2238 29.4595C74.8848 37.4798 75.0086 50.1815 71.3992 60.6522C69.2461 66.8957 65.8014 72.6778 62.1892 78.1728C60.3474 80.9767 58.3657 83.685 56.3053 86.3252C54.5157 88.6159 52.292 91.0125 49.2009 91.1309C48.7241 91.151 48.7041 91.8946 49.1846 91.8792C54.5726 91.6729 58.0538 85.406 60.7951 81.5365C65.0594 75.5164 68.9296 69.0833 71.6271 62.1967C75.8977 51.279 75.9361 37.4453 66.7713 28.9538L66.7675 28.9492Z" fill="black"/>
<path opacity="0.06" d="M49.2896 91.7655C45.7741 87.0583 45.4553 80.9834 45.1066 75.3298C44.7061 68.8395 44.6811 62.3146 45.5387 55.858C47.0375 44.5684 52.9208 28.895 66.6357 29.1027C67.1141 29.1085 67.1341 28.3649 66.6519 28.3544C52.9929 28.1438 46.8918 43.0579 45.0145 54.3691C43.8266 61.5077 43.961 68.8066 44.4051 76.0041C44.7534 81.662 45.246 87.5831 48.7463 92.2716C49.0364 92.6568 49.5763 92.1417 49.29 91.7612L49.2896 91.7655Z" fill="black"/>
<path opacity="0.06" d="M57.1623 60.3097C59.6593 49.7173 61.8942 38.9268 66.4132 28.9729C66.6113 28.5388 65.9804 28.1403 65.7823 28.5744C61.3339 38.3813 59.0964 48.9444 56.62 59.3761C54.0677 70.1343 51.6989 80.9369 49.4893 91.7728C49.3949 92.2389 50.1083 92.4571 50.2031 91.9868C52.3627 81.3901 54.681 70.8309 57.1627 60.3055L57.1623 60.3097Z" fill="black"/>
<path opacity="0.06" d="M49.8567 91.6128C46.3442 91.3756 44.7341 85.5936 43.7535 82.957C42.5543 79.7367 41.5948 76.4293 40.8061 73.0836C39.2135 66.3307 38.5053 59.3335 38.7275 52.3966C38.9591 45.2421 40.9635 37.895 46.5668 33.091C51.7718 28.6278 59.1448 28.9191 65.5584 29.2242C66.0393 29.2474 66.0555 28.4991 65.5746 28.4759C58.7652 28.152 51.6573 28.0719 46.0581 32.5421C40.1608 37.252 38.3042 45.2055 37.9812 52.3764C37.6248 60.2124 38.7295 68.1885 40.7012 75.7556C41.63 79.3213 42.8406 82.8084 44.2342 86.2199C45.2072 88.5944 46.885 92.1548 49.8413 92.3526C50.3213 92.3843 50.3371 91.6402 49.8575 91.6043L49.8567 91.6128Z" fill="black"/>
<path opacity="0.06" d="M79.4488 41.3377C76.2656 34.8344 71.9343 29.0243 64.3708 27.8737C63.8993 27.8001 63.8873 28.5488 64.3545 28.622C71.8884 29.7696 75.9424 35.8686 79.0652 42.2501C82.3403 48.9427 81.1638 56.601 78.3648 63.2244C75.6781 69.585 71.4234 75.3833 66.6649 80.3333C64.46 82.6289 62.0451 84.7188 59.5183 86.6474C56.5976 88.8745 53.3577 91.1291 49.5973 91.4366C49.1231 91.4741 49.1026 92.2219 49.5811 92.1849C52.9231 91.912 55.7123 90.2629 58.4101 88.3774C61.3931 86.2938 64.1587 83.9095 66.7295 81.3383C72.1892 75.8854 76.7476 69.2867 79.6281 62.1144C82.3312 55.3827 82.6737 47.9352 79.4484 41.3419L79.4488 41.3377Z" fill="black"/>
</g>
<path d="M46.4244 103.341C45.4565 101.631 45.6678 98.8798 45.4699 96.957C45.2484 94.8046 44.7169 92.4193 44.9783 90.2689C45.0347 89.7989 44.3003 89.7457 44.2439 90.2156C43.9734 92.4551 44.5192 94.8676 44.7495 97.1023C44.9582 99.1291 44.7439 101.867 45.7667 103.668C45.9988 104.077 46.6598 103.759 46.4282 103.345L46.4244 103.341Z" fill="#B3B3B3"/>
<path d="M50.3611 91.8872C48.2355 95.6736 46.5688 99.6566 45.3578 103.827C45.2257 104.285 45.9383 104.469 46.07 104.016C47.2618 99.9071 48.9089 95.9906 50.9988 92.2606C51.2333 91.8473 50.5951 91.4781 50.3649 91.8918L50.3611 91.8872Z" fill="#B3B3B3"/>
<path d="M54.6714 91.2978C52.0228 95.6439 49.1703 99.8492 46.1141 103.914C45.8276 104.292 46.4704 104.657 46.748 104.282C49.8085 100.218 52.6613 96.0088 55.3053 91.6666C55.552 91.2588 54.9135 90.8939 54.6714 91.2978Z" fill="#B3B3B3"/>
<path d="M47.8902 109.777C47.5276 109.852 47.117 109.853 46.6472 109.762C44.0983 109.259 40.5667 108.578 40.7648 105.915C40.8669 104.533 40.7703 101.656 42.6488 101.393C44.7183 101.102 48.1963 102.352 50.3059 102.759C50.4401 102.785 50.5785 102.812 50.6858 102.892C50.8055 102.977 50.8603 103.111 50.899 103.235C51.1599 104.076 50.9449 104.928 50.7173 105.736C50.2865 107.239 49.6816 109.402 47.8948 109.773L47.8902 109.777Z" fill="#A2A2A3"/>
<path d="M62.3109 38.0012C62.3924 37.9152 62.3769 38.025 62.3879 38.0433C62.4758 38.3137 62.5554 38.5831 62.6391 38.8531C63.0198 40.1131 63.4142 41.366 63.7776 42.6286C64.0341 43.5118 64.3216 44.3852 64.574 45.268C64.8225 46.146 65.1155 47.0072 65.3599 47.8849C65.6084 48.7629 65.9014 49.6241 66.1457 50.5017C66.3909 51.3709 66.6806 52.2232 66.9262 53.0881C67.1743 53.9704 67.4622 54.8396 67.7192 55.7185C67.7827 55.935 67.8369 56.159 67.8916 56.3789C67.8162 56.3626 67.7608 56.3184 67.7059 56.27C67.4109 56.0172 67.101 55.7842 66.8107 55.5276C66.3314 55.1103 65.8228 54.7286 65.3244 54.3308C64.624 53.7753 63.9282 53.216 63.2226 52.6686C62.8147 52.3485 62.4314 51.9967 62.0239 51.6724C61.2123 51.0328 60.4011 50.3889 59.5941 49.7455C59.4597 49.6375 59.4597 49.6375 59.4175 49.8003C59.4098 49.8338 59.4021 49.8673 59.3944 49.9008L56.9624 59.6857C56.9286 59.6394 56.955 59.5906 56.9682 59.5448C57.7868 56.2469 58.6055 52.949 59.4288 49.6472C59.4763 49.6006 59.487 49.5374 59.5019 49.4747C60.4417 45.7005 61.3776 41.9217 62.3174 38.1476C62.331 38.0975 62.3659 38.0496 62.3245 37.994L62.3109 38.0012Z" fill="#EDEDEF"/>
<path d="M62.3119 38.0015C62.3495 38.0525 62.3142 38.1046 62.3048 38.1551C61.3693 41.9297 60.4291 45.708 59.4893 49.4822C59.4744 49.545 59.4637 49.6081 59.4162 49.6547C59.1769 49.6947 58.9385 49.7262 58.6984 49.7746C57.5976 50.0012 56.4822 50.162 55.3832 50.4145C54.6826 50.5747 53.9704 50.6822 53.2644 50.8118C52.0261 51.0459 50.7823 51.2494 49.5486 51.5224C49.3122 51.5756 49.0784 51.6461 48.832 51.6296C49.0841 51.3381 49.3513 51.0653 49.6228 50.7929C50.0991 50.3142 50.5915 49.8458 51.0564 49.3531C51.6834 48.6969 52.3407 48.0781 52.9677 47.4219C53.5853 46.7733 54.238 46.1583 54.8556 45.5098C55.4783 44.8532 56.1399 44.2348 56.7669 43.5786C57.4036 42.9105 58.0707 42.2799 58.707 41.616C59.339 40.9518 60.0057 40.3254 60.6373 39.6654C61.1493 39.1303 61.6803 38.6187 62.2004 38.0887C62.2339 38.0536 62.2556 38.0086 62.3119 38.0015Z" fill="#EDEDEF"/>
<path d="M56.9536 59.6888L59.3856 49.904C59.3933 49.8705 59.401 49.837 59.4087 49.8035C59.4513 49.6364 59.4509 49.6407 59.5853 49.7486C60.3965 50.3925 61.2035 51.036 62.0151 51.6756C62.423 51.9956 62.8017 52.3513 63.2138 52.6717C63.9194 53.2192 64.6151 53.7785 65.3156 54.334C65.814 54.7318 66.3225 55.1134 66.8018 55.5307C67.0968 55.7836 67.4067 56.0165 67.6971 56.2732C67.752 56.3216 67.8074 56.3658 67.8827 56.382C67.9071 56.4788 67.8204 56.4485 67.7852 56.4578C67.0969 56.6664 66.4085 56.8749 65.7206 57.0792C65.3411 57.1949 64.9548 57.2928 64.5782 57.4216C63.1781 57.9006 61.7431 58.2603 60.3406 58.7219C59.2565 59.0788 58.1612 59.3788 57.0704 59.7178C57.0263 59.7305 56.9806 59.7601 56.9306 59.7465L56.9447 59.6922L56.9536 59.6888Z" fill="#EDEDEF"/>
<path d="M56.954 59.6891L56.9399 59.7434C56.7404 59.6031 56.5841 59.4158 56.4134 59.2442C55.8141 58.6604 55.206 58.0801 54.6259 57.4768C53.5629 56.3659 52.4286 55.3249 51.3651 54.2183C50.5373 53.3584 49.663 52.5367 48.8259 51.6845L48.8315 51.6294L48.8358 51.6298C49.0826 51.642 49.3164 51.5715 49.5523 51.5227C50.7856 51.2538 52.0298 51.0461 53.2681 50.8121C53.9745 50.6782 54.6864 50.5749 55.3869 50.4147C56.486 50.1622 57.5971 50.001 58.7021 49.7748C58.938 49.7259 59.1806 49.6949 59.4199 49.655C58.6013 52.9529 57.7784 56.2504 56.9593 59.5526C56.9461 59.5984 56.9202 59.6429 56.9536 59.6934L56.954 59.6891Z" fill="#EDEDEF"/>
<path d="M54.533 69.5267C54.4728 69.572 54.4704 69.5117 54.4603 69.485C54.1735 68.6459 53.8114 67.8334 53.5111 67.0015C53.167 66.0537 52.7742 65.1224 52.4255 64.1784C52.1104 63.3236 51.7598 62.4823 51.4447 61.6274C51.1036 60.6928 50.7175 59.7793 50.3764 58.8447C50.0487 57.9457 49.6761 57.0679 49.3527 56.1693C49.0389 55.3018 48.6802 54.4554 48.3622 53.5874C48.4118 53.5624 48.4287 53.607 48.4519 53.6308C49.4276 54.5914 50.4135 55.5358 51.3701 56.5159C52.4273 57.6005 53.5324 58.6343 54.5849 59.7227C55.1807 60.3403 55.8011 60.9263 56.3977 61.5355C56.4209 61.5593 56.4488 61.5792 56.4763 61.6035C56.4742 61.6247 56.464 61.6408 56.4618 61.662C55.819 64.2407 55.1799 66.8241 54.537 69.4028C54.5285 69.4448 54.503 69.485 54.5326 69.5309L54.533 69.5267Z" fill="#EDEDEF"/>
<path d="M54.5326 69.5266C54.5026 69.485 54.5285 69.4405 54.537 69.3985C55.1757 66.8193 55.8189 64.2364 56.4618 61.6577C56.464 61.6364 56.4741 61.6203 56.4763 61.5991C57.2392 61.3725 58.013 61.164 58.7701 60.911C60.1951 60.4389 61.6487 60.0639 63.0729 59.6002C64.431 59.1555 65.8081 58.777 67.1725 58.3544C67.2343 58.3349 67.3 58.3202 67.3707 58.2974C67.3668 58.3784 67.3091 58.3983 67.2718 58.4287C66.6905 58.931 66.0973 59.4235 65.5231 59.9394C64.7932 60.5979 64.0288 61.2187 63.2989 61.8773C62.6064 62.5054 61.8755 63.091 61.1829 63.7191C60.4624 64.3701 59.7077 64.979 58.9919 65.6261C58.304 66.2504 57.5777 66.8322 56.8899 67.4565C56.1694 68.1074 55.4227 68.7215 54.6988 69.3635C54.6424 69.4135 54.5894 69.4724 54.533 69.5223L54.5326 69.5266Z" fill="#EDEDEF"/>
<path d="M48.835 51.63L48.8294 51.6852C48.785 51.6592 48.7999 51.6393 48.835 51.63Z" fill="#EDEDEF"/>
</svg>
