<svg width="144" height="40" viewBox="0 0 144 40" fill="none" xmlns="http://www.w3.org/2000/svg">
<path fill-rule="evenodd" clip-rule="evenodd" d="M6.38977 0C6.8727 0 7.2642 0.391494 7.2642 0.874427V2.7341C12.2811 2.75623 21.6114 2.73644 26.176 2.72175C26.6589 2.72019 27.0517 3.11042 27.0532 3.59335C27.0548 4.07628 26.6646 4.46904 26.1816 4.47059C21.6247 4.48526 12.2958 4.50508 7.2642 4.48296V6.67073C7.2642 7.15366 6.8727 7.54515 6.38977 7.54515C5.90684 7.54515 5.51534 7.15366 5.51534 6.67073V4.47189C5.46735 4.47145 5.42027 4.471 5.37411 4.47055C4.18583 4.45889 3.44133 4.66759 2.96636 4.95326C2.51177 5.22668 2.22659 5.61687 2.04159 6.1474C1.84815 6.70218 1.77167 7.39203 1.75339 8.21726C1.7424 8.71378 1.75163 9.19549 1.76133 9.70144C1.76836 10.068 1.77563 10.4473 1.77563 10.8541C1.77562 12.0854 2.54308 13.3057 3.64279 14.3277C4.74033 15.3477 5.98655 15.9993 6.60412 16.1555C7.07232 16.2739 7.35589 16.7494 7.23749 17.2176C7.11909 17.6858 6.64357 17.9694 6.17537 17.851C5.19841 17.6039 3.70035 16.7687 2.45225 15.6088C1.20631 14.4509 0.0267646 12.7983 0.0267768 10.8541C0.0267789 10.5248 0.0203414 10.1681 0.0137786 9.80456C0.0038585 9.255 -0.00634751 8.68961 0.00497006 8.17854C0.024462 7.29834 0.105336 6.3887 0.390249 5.5716C0.683614 4.73026 1.19779 3.97618 2.06498 3.4546C2.91179 2.94528 4.0115 2.70824 5.39127 2.72178C5.43191 2.72218 5.47327 2.72257 5.51534 2.72296V0.874427C5.51534 0.391494 5.90684 0 6.38977 0ZM30.7604 28.5321C30.7604 28.1856 30.7301 27.8149 30.6745 27.4464C30.5493 26.6159 30.2765 25.6648 29.7975 24.8148C29.3181 23.9641 28.6012 23.1634 27.5716 22.7441C26.5266 22.3187 25.2881 22.3385 23.881 22.8933C23.4317 23.0705 23.2111 23.5783 23.3883 24.0276C23.5654 24.4768 24.0732 24.6974 24.5225 24.5203C25.6078 24.0923 26.3709 24.1436 26.9121 24.3639C27.4686 24.5905 27.9225 25.0498 28.2739 25.6734C28.6257 26.2976 28.8439 27.0351 28.9452 27.7072C29.051 28.4083 29.0116 28.9129 28.9558 29.0929C28.8735 29.3583 28.9222 29.647 29.0871 29.8706C29.2519 30.0943 29.5132 30.2263 29.791 30.2263C30.586 30.2263 31.2882 30.3383 31.8448 30.7C32.3684 31.0402 32.8915 31.6868 33.1602 33.0359C33.3224 34.0329 33.1769 34.7532 32.9041 35.2782C32.6274 35.8108 32.1811 36.2166 31.6255 36.5119C31.0112 36.8383 30.3055 37.0071 29.6609 37.0618C29.7985 36.7953 29.9138 36.5069 29.991 36.2021C30.1201 35.6927 30.1462 35.1192 29.9686 34.5318C29.7899 33.941 29.4226 33.395 28.8581 32.9179C28.8522 32.9129 28.8463 32.908 28.8402 32.9032C27.3817 31.7352 25.933 31.4645 24.493 31.7965C23.1373 32.109 21.8498 32.9458 20.6333 33.8035C20.383 33.98 20.1337 34.1584 19.8845 34.3367C17.5988 35.9728 15.325 37.6003 12.4322 37.6003C11.184 37.6003 10.2606 37.2589 9.56329 36.7416C8.85677 36.2175 8.33006 35.4733 7.95211 34.5947C7.18688 32.8158 7.09294 30.6249 7.25875 29.147C7.31259 28.667 6.96718 28.2343 6.48726 28.1805C6.00734 28.1267 5.57464 28.4721 5.5208 28.952C5.33413 30.6158 5.42146 33.1375 6.34559 35.2858C6.81234 36.3708 7.50733 37.3939 8.52134 38.1462C9.54458 38.9052 10.8405 39.3492 12.4322 39.3492C15.9241 39.3492 18.6709 37.3696 20.8965 35.7656C21.1514 35.5819 21.3995 35.4031 21.641 35.2328C22.8729 34.3643 23.9049 33.7268 24.8859 33.5006C25.7799 33.2945 26.6826 33.4194 27.7377 34.2608C28.0737 34.547 28.2268 34.8141 28.2946 35.0382C28.364 35.2675 28.3618 35.5118 28.2957 35.7727C28.1563 36.3232 27.7524 36.8574 27.4056 37.1705C27.1672 37.3857 27.066 37.7142 27.1419 38.0262C27.2178 38.3382 27.4586 38.5835 27.7692 38.6652C28.9603 38.9784 30.8861 38.8853 32.4462 38.0562C33.246 37.6311 33.9835 36.9941 34.456 36.0845C34.9313 35.1697 35.1004 34.0522 34.8835 32.7377C34.8832 32.7357 34.8828 32.7338 34.8825 32.7319C34.8813 32.7249 34.88 32.7179 34.8786 32.7109C34.5422 31.0047 33.8083 29.8902 32.7977 29.2336C32.1449 28.8094 31.4338 28.6147 30.7604 28.5321Z" fill="#39C290"/>
<path fill-rule="evenodd" clip-rule="evenodd" d="M23.8108 23.3998C24.1117 23.0487 24.6403 23.0081 24.9913 23.309C26.3805 24.4997 26.8571 26.0969 26.4671 27.5008C26.0779 28.902 24.8592 29.9689 23.1902 30.1358C21.8223 30.2726 20.9168 30.2783 20.2025 30.1926C19.5323 30.1122 19.0567 29.9526 18.6012 29.7998C18.5636 29.7872 18.5261 29.7746 18.4887 29.7621C18.0501 29.6159 17.813 29.1418 17.9592 28.7032C18.1054 28.2645 18.5796 28.0274 19.0182 28.1737C19.0518 28.1849 19.0847 28.1959 19.117 28.2066C19.5773 28.3606 19.9065 28.4707 20.402 28.5301C20.9436 28.5951 21.7126 28.6008 23.0236 28.4697C24.0338 28.3687 24.6569 27.7612 24.8538 27.0527C25.0498 26.3468 24.8566 25.3989 23.9016 24.5803C23.5506 24.2794 23.5099 23.7509 23.8108 23.3998Z" fill="#39C290"/>
<path fill-rule="evenodd" clip-rule="evenodd" d="M10.7654 8.76373C10.5675 9.03858 10.493 9.39467 10.493 9.61909V13.554C10.493 14.0369 10.1015 14.4284 9.61857 14.4284C9.13563 14.4284 8.74414 14.0369 8.74414 13.554V9.61909C8.74414 9.11481 8.88823 8.37787 9.34615 7.74186C9.83618 7.06127 10.6452 6.55859 11.8046 6.55859C12.9596 6.55859 13.7821 7.05549 14.3051 7.70383C14.8008 8.3184 15.0074 9.03917 15.0511 9.54368L15.0515 9.54846L15.0515 9.54846C15.0834 9.94231 15.2398 10.549 15.5765 11.0313C15.8897 11.4798 16.3386 11.8052 17.0512 11.8052C17.5124 11.8052 17.7403 11.6798 17.8963 11.5433C18.0949 11.3696 18.2457 11.122 18.478 10.7155C18.4857 10.7021 18.4935 10.6884 18.5014 10.6745C18.7046 10.3183 18.9864 9.82434 19.4266 9.43922C19.9264 9.00187 20.5729 8.74466 21.4233 8.74466C22.2053 8.74466 22.8045 8.90963 23.2831 9.24352C23.6899 9.52733 23.9482 9.90149 24.1148 10.1429C24.1314 10.1669 24.147 10.1895 24.1618 10.2107C24.3437 10.4705 24.4585 10.607 24.6334 10.7099C24.8074 10.8122 25.132 10.9307 25.7955 10.9307C26.2784 10.9307 26.6699 11.3222 26.6699 11.8052C26.6699 12.2881 26.2784 12.6796 25.7955 12.6796C24.9286 12.6796 24.2696 12.5248 23.7467 12.2173C23.2248 11.9103 22.9298 11.5003 22.7291 11.2136L22.7271 11.2108C22.5098 10.9004 22.4224 10.7754 22.2825 10.6778C22.1735 10.6018 21.953 10.4935 21.4233 10.4935C20.9621 10.4935 20.7342 10.6189 20.5782 10.7554C20.3796 10.9291 20.2288 11.1766 19.9965 11.5832C19.9888 11.5966 19.981 11.6103 19.9731 11.6241C19.7699 11.9804 19.4881 12.4743 19.0479 12.8595C18.5481 13.2968 17.9016 13.554 17.0512 13.554C15.6652 13.554 14.7198 12.8592 14.1426 12.0325C13.5899 11.2409 13.3598 10.3189 13.3086 9.69267C13.2888 9.4683 13.1821 9.09725 12.9438 8.80176C12.7321 8.53924 12.3985 8.30745 11.8046 8.30745C11.2152 8.30745 10.9312 8.53346 10.7654 8.76373Z" fill="#39C290"/>
<path fill-rule="evenodd" clip-rule="evenodd" d="M13.413 16.1387C13.2519 15.8896 12.9755 15.7393 12.6789 15.7393C12.3823 15.7393 12.1059 15.8896 11.9447 16.1387L7.49332 23.0181L12.8093 26.3406L17.7368 22.8209L13.413 16.1387ZM18.2351 24.5011L13.3215 28.0108C13.0487 28.2057 12.6853 28.2169 12.401 28.0392L7.38184 24.9022L11.9447 31.954C12.1059 32.203 12.3823 32.3534 12.6789 32.3534C12.9755 32.3534 13.2519 32.203 13.413 31.954L18.2224 24.5213C18.2267 24.5146 18.231 24.5079 18.2351 24.5011Z" fill="#6F79F5"/>
<path d="M52.4805 20.5522H46.5287V22.5797H52.4805V24.2793H46.5287C46.3036 24.2793 46.0897 24.2362 45.8871 24.1499C45.6845 24.0579 45.5072 23.9371 45.3552 23.7875C45.2089 23.6322 45.0907 23.4511 45.0007 23.244C44.9162 23.0369 44.874 22.8155 44.874 22.5797V16.7906C44.874 16.5548 44.9162 16.3334 45.0007 16.1263C45.0907 15.9192 45.2089 15.7409 45.3552 15.5914C45.5072 15.4361 45.6845 15.3153 45.8871 15.229C46.0897 15.137 46.3036 15.091 46.5287 15.091H50.8174C51.0481 15.091 51.2648 15.137 51.4674 15.229C51.67 15.3153 51.8445 15.4361 51.9908 15.5914C52.1428 15.7409 52.261 15.9192 52.3454 16.1263C52.4355 16.3334 52.4805 16.5548 52.4805 16.7906V20.5522ZM46.5287 16.7906V18.8526H50.8174V16.7906H46.5287Z" fill="black"/>
<path d="M54.7346 15.091H56.9296V12.2612H58.5927V15.091H61.5475V16.7906H58.5927V22.5797H61.5475V24.2793H58.5927C58.3676 24.2793 58.1537 24.2362 57.9511 24.1499C57.7485 24.0579 57.5712 23.9371 57.4192 23.7875C57.2673 23.6322 57.1462 23.4511 57.0562 23.244C56.9718 23.0369 56.9296 22.8155 56.9296 22.5797V16.7906H54.7346V15.091Z" fill="black"/>
<path d="M72.2776 24.2793H70.6145V16.7906H65.9797V24.2793H64.325V11.5537H65.9797V16.713C65.9909 16.4886 66.0416 16.2787 66.1316 16.0832C66.2217 15.8818 66.3399 15.7093 66.4862 15.5655C66.6382 15.416 66.8126 15.3009 67.0096 15.2204C67.2066 15.1341 67.4177 15.091 67.6428 15.091H70.6145C70.8452 15.091 71.0619 15.137 71.2645 15.229C71.4671 15.3153 71.6416 15.4361 71.7879 15.5914C71.9399 15.7409 72.0581 15.9192 72.1425 16.1263C72.2326 16.3334 72.2776 16.5548 72.2776 16.7906V24.2793Z" fill="black"/>
<path d="M80.3703 24.2793L77.4662 15.091H79.1462L81.2736 22.0189L83.2576 15.091H84.9545L86.9384 22.0189L89.0659 15.091H90.7459L87.8417 24.2793H86.1111L84.1018 17.5326L82.101 24.2793H80.3703Z" fill="black"/>
<path d="M92.485 20.2675C92.485 20.0317 92.5272 19.8131 92.6116 19.6118C92.7016 19.4047 92.8198 19.2236 92.9662 19.0683C93.1181 18.913 93.2954 18.7922 93.498 18.7059C93.7006 18.6139 93.9145 18.5679 94.1396 18.5679H98.4283V16.7906H92.9999V15.091H98.4283C98.6591 15.091 98.8758 15.137 99.0784 15.229C99.281 15.3153 99.4555 15.4361 99.6018 15.5914C99.7537 15.7409 99.8719 15.9192 99.9564 16.1263C100.046 16.3334 100.091 16.5548 100.091 16.7906V24.2793H98.4283V22.7263C98.4114 22.9392 98.3551 23.1405 98.2595 23.3303C98.1638 23.5201 98.04 23.6869 97.888 23.8307C97.7417 23.9687 97.5728 24.078 97.3815 24.1585C97.1901 24.239 96.9875 24.2793 96.7736 24.2793H94.1396C93.9145 24.2793 93.7006 24.2362 93.498 24.1499C93.2954 24.0579 93.1181 23.9371 92.9662 23.7875C92.8198 23.6322 92.7016 23.4511 92.6116 23.244C92.5272 23.0369 92.485 22.8155 92.485 22.5797V20.2675ZM94.1396 22.5797H98.4283V20.2675H94.1396V22.5797Z" fill="black"/>
<path d="M104.524 16.7906V24.2793H102.869V15.091H104.524V16.713C104.535 16.4886 104.586 16.2787 104.676 16.0832C104.766 15.8818 104.884 15.7093 105.03 15.5655C105.182 15.416 105.357 15.3009 105.554 15.2204C105.751 15.1341 105.962 15.091 106.187 15.091H107.951C108.182 15.091 108.396 15.137 108.593 15.229C108.795 15.3153 108.973 15.4361 109.125 15.5914C109.277 15.7409 109.395 15.9192 109.479 16.1263C109.569 16.3334 109.614 16.5548 109.614 16.7906V18.3436H107.951V16.7906H104.524Z" fill="black"/>
<path d="M117.111 22.5797V20.4487H113.168C112.938 20.4487 112.721 20.4055 112.518 20.3193C112.316 20.2272 112.139 20.1065 111.987 19.9569C111.84 19.8016 111.722 19.6204 111.632 19.4134C111.548 19.2063 111.505 18.9849 111.505 18.7491V16.7906C111.505 16.5548 111.548 16.3334 111.632 16.1263C111.722 15.9192 111.84 15.7409 111.987 15.5914C112.139 15.4361 112.316 15.3153 112.518 15.229C112.721 15.137 112.938 15.091 113.168 15.091H118.428V16.7906H113.168V18.7491H117.111C117.342 18.7491 117.556 18.7951 117.753 18.8871C117.955 18.9734 118.133 19.0942 118.284 19.2495C118.436 19.399 118.555 19.5773 118.639 19.7844C118.729 19.9914 118.774 20.2129 118.774 20.4487V22.5797C118.774 22.8155 118.729 23.0369 118.639 23.244C118.555 23.4511 118.436 23.6322 118.284 23.7875C118.133 23.9371 117.955 24.0579 117.753 24.1499C117.556 24.2362 117.342 24.2793 117.111 24.2793H111.505V22.5797H117.111Z" fill="black"/>
<path d="M121.374 20.2675C121.374 20.0317 121.417 19.8131 121.501 19.6118C121.591 19.4047 121.709 19.2236 121.856 19.0683C122.008 18.913 122.185 18.7922 122.387 18.7059C122.59 18.6139 122.804 18.5679 123.029 18.5679H127.318V16.7906H121.889V15.091H127.318C127.548 15.091 127.765 15.137 127.968 15.229C128.17 15.3153 128.345 15.4361 128.491 15.5914C128.643 15.7409 128.761 15.9192 128.846 16.1263C128.936 16.3334 128.981 16.5548 128.981 16.7906V24.2793H127.318V22.7263C127.301 22.9392 127.245 23.1405 127.149 23.3303C127.053 23.5201 126.929 23.6869 126.777 23.8307C126.631 23.9687 126.462 24.078 126.271 24.1585C126.08 24.239 125.877 24.2793 125.663 24.2793H123.029C122.804 24.2793 122.59 24.2362 122.387 24.1499C122.185 24.0579 122.008 23.9371 121.856 23.7875C121.709 23.6322 121.591 23.4511 121.501 23.244C121.417 23.0369 121.374 22.8155 121.374 22.5797V20.2675ZM123.029 22.5797H127.318V20.2675H123.029V22.5797Z" fill="black"/>
<path d="M133.624 24.2793L130.72 15.091H132.4L134.527 22.0189L136.511 15.091H138.208L140.192 22.0189L142.32 15.091H144L141.095 24.2793H139.365L137.356 17.5326L135.355 24.2793H133.624Z" fill="black"/>
</svg>
