<svg width="288" height="170" viewBox="0 0 288 170" fill="none" xmlns="http://www.w3.org/2000/svg">
<path d="M42.0148 100.79H7.55371V175.208H42.0148V100.79Z" fill="url(#paint0_linear_682_22005)"/>
<path d="M189.966 63.5117H85.4482V82.5591H189.966V63.5117Z" fill="#FCF4DE"/>
<path d="M181.106 44.4648H94.2959V63.512H181.106V44.4648Z" fill="#FCF4DE"/>
<path d="M183.207 82.5596V41.832H180.04V82.5596H183.207Z" fill="#F4EACC"/>
<path d="M192.443 82.55V60.8223H189.276V82.55H192.443Z" fill="#F4EACC"/>
<path d="M95.4697 82.55V41.8223H92.3024V82.55H95.4697Z" fill="#F4EACC"/>
<path d="M86.2324 82.5597V60.832H83.0653V82.5597H86.2324Z" fill="#F4EACC"/>
<path d="M106.21 35.7891V44.2851H111.523V35.7891" fill="#FDF1DA"/>
<path d="M101.465 55.0155C101.465 52.1077 98.808 49.7588 98.808 49.7588C98.808 49.7588 96.1514 52.1172 96.1514 55.0155V63.5114H101.465V55.0155Z" fill="#FDF1DA"/>
<path d="M179.074 55.0155C179.074 52.1077 176.417 49.7588 176.417 49.7588C176.417 49.7588 173.761 52.1172 173.761 55.0155V63.5114H179.074V55.0155Z" fill="#FDF1DA"/>
<path d="M91.9246 74.244C91.9246 71.3363 89.2679 68.9873 89.2679 68.9873C89.2679 68.9873 86.6113 71.3457 86.6113 74.244V82.7399H91.9246V74.244Z" fill="#FDF1DA"/>
<path d="M188.897 74.244C188.897 71.3363 186.241 68.9873 186.241 68.9873C186.241 68.9873 183.584 71.3457 183.584 74.244V82.7399H188.897V74.244Z" fill="#FDF1DA"/>
<path d="M163.938 35.7891V44.2851H169.252V35.7891" fill="#FDF1DA"/>
<path d="M196.82 85.4189H78.5654V100.232H196.82V85.4189Z" fill="#F4EACC"/>
<path d="M196.821 132.58V98.2832H71.7588V132.58H64.9517V153.91H58.1445V175.239H64.9517H197.303V153.91V132.58H196.821Z" fill="#F4EACC"/>
<path d="M197.408 88.3457H77.9805V92.4374H197.408V88.3457Z" fill="#FAF1D8"/>
<path d="M197.408 88.3457H77.9805V89.6149H197.408V88.3457Z" fill="#FCF4DE"/>
<path d="M197.408 91.8516H77.9805V93.1207H197.408V91.8516Z" fill="#FCF4DE"/>
<path opacity="0.1" d="M196.83 93.1211H78.5654V94.3902H196.83V93.1211Z" fill="black"/>
<path opacity="0.1" d="M196.82 85.4189H78.5654V87.3701H196.82V85.4189Z" fill="black"/>
<path d="M79.2744 92.4279V88.3457H77.9778V92.4279H79.2744Z" fill="#FCF4DE"/>
<path d="M92.3975 92.4279V88.3457H91.1008V92.4279H92.3975Z" fill="#FCF4DE"/>
<path d="M85.8359 92.5998V88.5176H84.5393V92.5998H85.8359Z" fill="#FCF4DE"/>
<path d="M98.9678 92.5998V88.5176H97.6713V92.5998H98.9678Z" fill="#FCF4DE"/>
<path d="M112.091 92.5998V88.5176H110.794V92.5998H112.091Z" fill="#FCF4DE"/>
<path d="M125.213 92.7795V88.6973H123.916V92.7795H125.213Z" fill="#FCF4DE"/>
<path d="M138.345 92.7892V88.707H137.048V92.7892H138.345Z" fill="#FCF4DE"/>
<path d="M151.468 92.7795V88.6973H150.171V92.7795H151.468Z" fill="#FCF4DE"/>
<path d="M164.59 92.6369V88.5547H163.293V92.6369H164.59Z" fill="#FCF4DE"/>
<path d="M177.714 92.6369V88.5547H176.417V92.6369H177.714Z" fill="#FCF4DE"/>
<path d="M190.846 92.6369V88.5547H189.549V92.6369H190.846Z" fill="#FCF4DE"/>
<path d="M105.529 92.4279V88.3457H104.233V92.4279H105.529Z" fill="#FCF4DE"/>
<path d="M118.651 92.4279V88.3457H117.355V92.4279H118.651Z" fill="#FCF4DE"/>
<path d="M131.774 92.4377V88.3555H130.478V92.4377H131.774Z" fill="#FCF4DE"/>
<path d="M144.906 92.4279V88.3457H143.61V92.4279H144.906Z" fill="#FCF4DE"/>
<path d="M158.029 92.4279V88.3457H156.733V92.4279H158.029Z" fill="#FCF4DE"/>
<path d="M171.151 92.4279V88.3457H169.855V92.4279H171.151Z" fill="#FCF4DE"/>
<path d="M184.283 92.4279V88.3457H182.987V92.4279H184.283Z" fill="#FCF4DE"/>
<path d="M197.407 92.4279V88.3457H196.111V92.4279H197.407Z" fill="#FCF4DE"/>
<path d="M140.406 48.4912H135.093V63.513H140.406V48.4912Z" fill="#FDF1DA"/>
<path d="M130.433 48.4912H125.119V63.513H130.433V48.4912Z" fill="#FDF1DA"/>
<path d="M150.296 48.4912H144.982V63.513H150.296V48.4912Z" fill="#FDF1DA"/>
<path d="M140.406 68.2764H135.093V81.2334H140.406V68.2764Z" fill="#FDF1DA"/>
<path d="M120.969 68.4287H115.655V81.3858H120.969V68.4287Z" fill="#FDF1DA"/>
<path d="M130.478 68.4287H125.165V81.3858H130.478V68.4287Z" fill="#FDF1DA"/>
<path d="M159.76 68.4287H154.446V81.3858H159.76V68.4287Z" fill="#FDF1DA"/>
<path d="M169.252 68.4287H163.938V81.3858H169.252V68.4287Z" fill="#FDF1DA"/>
<path d="M179.207 68.4287H173.894V81.3858H179.207V68.4287Z" fill="#FDF1DA"/>
<path d="M111.523 68.4287H106.21V81.3858H111.523V68.4287Z" fill="#FDF1DA"/>
<path d="M120.969 48.4912H115.655V63.5889H120.969V48.4912Z" fill="#FDF1DA"/>
<path d="M159.76 48.4424H154.446V63.54H159.76V48.4424Z" fill="#FDF1DA"/>
<path d="M169.252 48.4424H163.938V63.54H169.252V48.4424Z" fill="#FDF1DA"/>
<path d="M111.523 48.4912H106.21V63.5889H111.523V48.4912Z" fill="#FDF1DA"/>
<path d="M101.624 68.4287H96.3105V81.3858H101.624V68.4287Z" fill="#FDF1DA"/>
<path d="M150.296 68.2764H144.982V81.2334H150.296V68.2764Z" fill="#FDF1DA"/>
<path d="M198.371 81.3281H77.0049V85.4198H198.371V81.3281Z" fill="#F7EDD0"/>
<path d="M190.958 63.5117H84.4453V66.2964H190.958V63.5117Z" fill="#F4EACC"/>
<path d="M182.005 44.2754H93.418V47.06H182.005V44.2754Z" fill="#F4EACC"/>
<path opacity="0.1" d="M180.039 47.0977H95.4697V49.8823H180.039V47.0977Z" fill="black"/>
<path opacity="0.1" d="M189.275 66.2969H86.2324V69.6877H189.275V66.2969Z" fill="black"/>
<path d="M94.8451 39.3885V39.3506C94.8451 39.0191 94.5804 38.7539 94.2495 38.7539H93.531C93.2001 38.7539 92.9354 39.0191 92.9354 39.3506V39.3885H92.6045V44.238H95.176V39.3885H94.8451Z" fill="#F4EACC"/>
<path d="M182.582 39.3885V39.3506C182.582 39.0191 182.318 38.7539 181.987 38.7539H181.268C180.937 38.7539 180.673 39.0191 180.673 39.3506V39.3885H180.342V44.238H182.913V39.3885H182.582Z" fill="#F4EACC"/>
<path d="M191.819 58.7107V58.6729C191.819 58.3414 191.554 58.0762 191.223 58.0762H190.505C190.174 58.0762 189.909 58.3414 189.909 58.6729V58.7107H189.578V63.5601H192.15V58.7107H191.819Z" fill="#F4EACC"/>
<path d="M85.4957 58.7107V58.6729C85.4957 58.3414 85.2309 58.0762 84.9 58.0762H84.1815C83.8506 58.0762 83.5858 58.3414 83.5858 58.6729V58.7107H83.2549V63.5601H85.8266V58.7107H85.4957Z" fill="#F4EACC"/>
<path d="M123.739 100.233H113.131V175.239H123.739V100.233Z" fill="#F7EDD0"/>
<path d="M83.2929 100.233H69.5557V175.239H83.2929V100.233Z" fill="#F7EDD0"/>
<path d="M83.3304 129.803H64.9512V175.238H83.3304V129.803Z" fill="#F8EFD5"/>
<path d="M124.267 100.233H112.601V102.327H124.267V100.233Z" fill="#FCF4DE"/>
<path opacity="0.15" d="M123.739 102.326H113.131V103.936H123.739V102.326Z" fill="black"/>
<path d="M161.083 100.233H150.476V175.239H161.083V100.233Z" fill="#F7EDD0"/>
<path d="M123.739 129.803H113.131V175.238H123.739V129.803Z" fill="#F8EFD5"/>
<path d="M161.083 129.803H150.476V175.238H161.083V129.803Z" fill="#F8EFD5"/>
<path d="M123.739 155.575H113.131V175.238H123.739V155.575Z" fill="#FBF2DA"/>
<path d="M161.083 155.575H150.476V175.238H161.083V155.575Z" fill="#FBF2DA"/>
<path d="M161.613 100.233H149.946V102.327H161.613V100.233Z" fill="#FCF4DE"/>
<path opacity="0.15" d="M161.083 102.326H150.476V103.936H161.083V102.326Z" fill="black"/>
<path d="M124.267 154.013H112.601V156.106H124.267V154.013Z" fill="#FCF4DE"/>
<path opacity="0.15" d="M123.739 156.105H113.131V157.422H123.739V156.105Z" fill="black"/>
<path d="M161.613 154.013H149.946V156.106H161.613V154.013Z" fill="#FCF4DE"/>
<path opacity="0.15" d="M161.083 156.105H150.476V157.422H161.083V156.105Z" fill="black"/>
<path d="M83.9821 100.233H68.874V102.327H83.9821V100.233Z" fill="#FCF4DE"/>
<path opacity="0.15" d="M83.2929 102.326H69.5557V104.419H83.2929V102.326Z" fill="black"/>
<path d="M145.956 146.898H128.258V148.063H145.956V146.898Z" fill="#F7EDD0"/>
<path opacity="0.15" d="M145.956 148.073H128.258V149.238H145.956V148.073Z" fill="black"/>
<path d="M144.168 110.662C144.074 106.03 137.115 102.279 137.115 102.279C137.115 102.279 130.157 106.021 130.053 110.662V146.9H144.187V110.662H144.168Z" fill="#FCF4DE"/>
<path opacity="0.15" d="M145.37 161.448C145.257 156.523 137.117 152.545 137.117 152.545C137.117 152.545 128.976 156.523 128.863 161.448H128.854V175.229H145.389V161.448H145.38H145.37Z" fill="black"/>
<path opacity="0.15" d="M143.715 161.354C143.621 157.641 137.107 154.639 137.107 154.639C137.107 154.639 130.593 157.641 130.498 161.354V175.211H143.725V161.354H143.715Z" fill="black"/>
<path d="M141.872 161.4C141.806 158.682 137.117 156.484 137.117 156.484C137.117 156.484 132.428 158.682 132.361 161.4V175.238H141.891V161.4H141.872Z" fill="#F1EDD5"/>
<path d="M141.891 112.007C141.825 108.587 137.107 105.831 137.107 105.831C137.107 105.831 132.389 108.587 132.323 112.007V146.9H141.9V112.007H141.891Z" fill="#F1EDD5"/>
<path d="M141.901 113.824H132.248V114.648H141.901V113.824Z" fill="#C7B6F5"/>
<path d="M141.901 119.669H132.248V120.493H141.901V119.669Z" fill="#C7B6F5"/>
<path d="M141.901 125.514H132.248V126.338H141.901V125.514Z" fill="#C7B6F5"/>
<path d="M141.901 131.357H132.248V132.182H141.901V131.357Z" fill="#C7B6F5"/>
<path d="M141.901 137.211H132.248V138.035H141.901V137.211Z" fill="#C7B6F5"/>
<path d="M141.901 143.055H132.248V143.879H141.901V143.055Z" fill="#C7B6F5"/>
<path d="M139.574 146.9V107.735L140.407 108.616V146.9H139.574Z" fill="#C7B6F5"/>
<path d="M133.74 146.9V108.71L134.564 107.811V146.9H133.74Z" fill="#C7B6F5"/>
<path opacity="0.15" d="M135.122 113.181C135.169 110.567 137.948 108.341 139.244 107.442C138.138 106.447 137.107 105.841 137.107 105.841C137.107 105.841 132.389 108.597 132.323 112.016V146.909H135.122V113.191V113.181Z" fill="black"/>
<path opacity="0.15" d="M134.714 112.992C134.79 109.317 139.167 106.21 140.982 105.083C139.11 103.369 137.096 102.279 137.096 102.279C137.096 102.279 130.138 106.021 130.034 110.662V146.9H134.705V112.992H134.714Z" fill="black"/>
<path d="M106.276 156.258H88.5771V157.423H106.276V156.258Z" fill="#F7EDD0"/>
<path opacity="0.15" d="M106.276 157.423H88.5771V158.588H106.276V157.423Z" fill="black"/>
<path d="M104.488 110.662C104.394 106.03 97.4354 102.279 97.4354 102.279C97.4354 102.279 90.477 106.021 90.373 110.662V156.258H104.507V110.662H104.488Z" fill="#FCF4DE"/>
<path d="M102.211 112.007C102.145 108.587 97.4274 105.831 97.4274 105.831C97.4274 105.831 92.7097 108.587 92.6436 112.007V156.248H102.221V112.007H102.211Z" fill="#F1EDD5"/>
<path d="M102.22 113.824H92.5674V114.648H102.22V113.824Z" fill="#C7B6F5"/>
<path d="M102.22 119.669H92.5674V120.493H102.22V119.669Z" fill="#C7B6F5"/>
<path d="M102.22 125.514H92.5674V126.338H102.22V125.514Z" fill="#C7B6F5"/>
<path d="M102.22 131.357H92.5674V132.182H102.22V131.357Z" fill="#C7B6F5"/>
<path d="M102.22 137.211H92.5674V138.035H102.22V137.211Z" fill="#C7B6F5"/>
<path d="M102.22 143.055H92.5674V143.879H102.22V143.055Z" fill="#C7B6F5"/>
<path d="M102.22 148.898H92.5674V149.722H102.22V148.898Z" fill="#C7B6F5"/>
<path d="M102.22 154.742H92.5674V155.566H102.22V154.742Z" fill="#C7B6F5"/>
<path d="M99.8936 156.249V107.735L100.726 108.616V156.249H99.8936Z" fill="#C7B6F5"/>
<path d="M94.0605 156.248V108.71L94.8933 107.811V156.248H94.0605Z" fill="#C7B6F5"/>
<path opacity="0.15" d="M95.4421 113.181C95.4893 110.567 98.2689 108.341 99.5641 107.442C98.458 106.447 97.4274 105.841 97.4274 105.841C97.4274 105.841 92.7097 108.597 92.6436 112.016V156.258H95.4421V113.181Z" fill="black"/>
<path opacity="0.15" d="M95.0354 112.992C95.1111 109.317 99.4885 106.21 101.304 105.083C99.4317 103.369 97.418 102.279 97.418 102.279C97.418 102.279 90.4595 106.021 90.3555 110.662V156.258H95.026V113.001L95.0354 112.992Z" fill="black"/>
<path d="M186.799 156.258H169.101V157.423H186.799V156.258Z" fill="#F7EDD0"/>
<path opacity="0.15" d="M186.799 157.423H169.101V158.588H186.799V157.423Z" fill="black"/>
<path d="M185.011 110.662C184.916 106.03 177.958 102.279 177.958 102.279C177.958 102.279 171 106.021 170.896 110.662V156.258H185.03V110.662H185.011Z" fill="#FCF4DE"/>
<path d="M182.733 112.007C182.667 108.587 177.949 105.831 177.949 105.831C177.949 105.831 173.231 108.587 173.165 112.007V156.248H182.742V112.007H182.733Z" fill="#F1EDD5"/>
<path d="M182.744 113.824H173.091V114.648H182.744V113.824Z" fill="#C7B6F5"/>
<path d="M182.744 119.669H173.091V120.493H182.744V119.669Z" fill="#C7B6F5"/>
<path d="M182.744 125.514H173.091V126.338H182.744V125.514Z" fill="#C7B6F5"/>
<path d="M182.744 131.357H173.091V132.182H182.744V131.357Z" fill="#C7B6F5"/>
<path d="M182.744 137.211H173.091V138.035H182.744V137.211Z" fill="#C7B6F5"/>
<path d="M182.744 143.055H173.091V143.879H182.744V143.055Z" fill="#C7B6F5"/>
<path d="M182.744 148.898H173.091V149.722H182.744V148.898Z" fill="#C7B6F5"/>
<path d="M182.744 154.742H173.091V155.566H182.744V154.742Z" fill="#C7B6F5"/>
<path d="M180.418 156.249V107.735L181.251 108.616V156.249H180.418Z" fill="#C7B6F5"/>
<path d="M174.583 156.248V108.71L175.416 107.811V156.248H174.583Z" fill="#C7B6F5"/>
<path opacity="0.15" d="M175.963 113.181C176.011 110.567 178.79 108.341 180.086 107.442C178.979 106.447 177.949 105.841 177.949 105.841C177.949 105.841 173.231 108.597 173.165 112.016V156.258H175.963V113.181Z" fill="black"/>
<path opacity="0.15" d="M175.558 112.992C175.633 109.317 180.011 106.21 181.826 105.083C179.954 103.369 177.94 102.279 177.94 102.279C177.94 102.279 170.982 106.021 170.878 110.662V156.258H175.548V113.001L175.558 112.992Z" fill="black"/>
<path opacity="0.15" d="M125.214 102.326H123.747V175.238H125.214V102.326Z" fill="black"/>
<path opacity="0.15" d="M162.559 102.326H161.083V175.238H162.559V102.326Z" fill="black"/>
<path opacity="0.15" d="M84.7968 102.326H83.3301V175.238H84.7968V102.326Z" fill="black"/>
<path d="M102.22 164.734H92.5674V169.214H102.22V164.734Z" fill="#F8EFD5"/>
<path d="M182.744 164.734H173.091V169.214H182.744V164.734Z" fill="#F8EFD5"/>
<path d="M141.9 162.565H132.352V164.09H141.9V162.565Z" fill="#EDEACF"/>
<path d="M137.646 162.566V159.166H138.875V158.323H137.646V157.423H136.606V158.323H135.377V159.166H136.606V162.566H132.352V164.1H141.9V162.566H137.646Z" fill="#EDEACF"/>
<path d="M141.9 165.407H132.352V165.938H141.9V165.407Z" fill="#EDEACF"/>
<path d="M141.9 168.912H132.352V169.442H141.9V168.912Z" fill="#EDEACF"/>
<path d="M139.14 175.21V164.147H138.61V175.21H139.14Z" fill="#EDEACF"/>
<path d="M135.642 175.21V164.147H135.112V175.21H135.642Z" fill="#EDEACF"/>
<path d="M133.646 159.639V161.561C133.646 161.959 134.507 162.272 134.507 162.272C134.507 162.272 135.368 161.95 135.368 161.561V159.639H133.637H133.646Z" fill="#EDEACF"/>
<path d="M138.876 159.639V161.561C138.876 161.959 139.737 162.272 139.737 162.272C139.737 162.272 140.598 161.95 140.598 161.561V159.639H138.866H138.876Z" fill="#EDEACF"/>
<path opacity="0.15" d="M137.107 156.484C137.107 156.484 132.418 158.682 132.352 161.4V175.238H134.687V162.565C134.743 160.188 138.327 158.218 139.234 157.754C138.137 156.967 137.107 156.484 137.107 156.484Z" fill="black"/>
<path d="M124.267 128.288H112.601V130.381H124.267V128.288Z" fill="#FCF4DE"/>
<path opacity="0.15" d="M123.739 130.391H113.131V132.039H123.739V130.391Z" fill="black"/>
<path d="M83.5668 128.288H64.3652V130.381H83.5668V128.288Z" fill="#FCF4DE"/>
<path opacity="0.15" d="M83.3304 130.391H64.9512V132.039H83.3304V130.391Z" fill="black"/>
<path d="M161.613 128.288H149.946V130.381H161.613V128.288Z" fill="#FCF4DE"/>
<path opacity="0.15" d="M161.083 130.391H150.476V132.039H161.083V130.391Z" fill="black"/>
<path d="M85.1633 156.105H56.3086V175.238H85.1633V156.105Z" fill="#FBF2DA"/>
<path d="M85.9586 155.158H55.5156V158.009H85.9586V155.158Z" fill="#FCF4DE"/>
<path d="M84.7858 155.16H56.6875L61.3485 150.405H80.1248L84.7858 155.16Z" fill="#FDF4E2"/>
<path opacity="0.15" d="M86.0262 158.011H85.165V175.239H86.0262V158.011Z" fill="black"/>
<path d="M231.792 81.2715H193.785V175.21H231.792V81.2715Z" fill="#FDF9E5"/>
<path d="M229.467 50.7451H196.112V141.037H229.467V50.7451Z" fill="#FDF9E5"/>
<path d="M229.467 50.7451H196.112V81.3856H229.467V50.7451Z" fill="#FEFAE9"/>
<path d="M224.323 50.7451H201.245V76.8392H224.323V50.7451Z" fill="#FDF9E5"/>
<path d="M233.39 80.4951H192.188V85.4203H233.39V80.4951Z" fill="#FCF5EB"/>
<path opacity="0.1" d="M231.763 85.4189H193.804V90.3441H231.763V85.4189Z" fill="black"/>
<path d="M230.998 49.0498H194.57V51.5124H230.998V49.0498Z" fill="#FCF5EB"/>
<path opacity="0.1" d="M229.467 51.5117H196.112V53.9742H229.467V51.5117Z" fill="black"/>
<path opacity="0.3" d="M212.79 56.2666C209.878 56.2666 207.523 58.625 207.523 61.5422V74.414H218.065V61.5422C218.065 58.625 215.701 56.2666 212.799 56.2666H212.79Z" fill="black"/>
<path opacity="0.3" d="M211.003 64.4777C211.003 61.5605 213.366 59.2021 216.269 59.2021C216.722 59.2021 217.157 59.2779 217.583 59.3915C216.76 57.554 214.926 56.2754 212.789 56.2754C209.878 56.2754 207.523 58.6338 207.523 61.551V74.4229H211.003V64.4872V64.4777Z" fill="black"/>
<path d="M206.492 63.7861H201.245V65.3394H206.492V63.7861Z" fill="#FCF5EB"/>
<path d="M224.323 63.7861H219.076V65.3394H224.323V63.7861Z" fill="#FCF5EB"/>
<path d="M206.492 66.126H201.245V67.6793H206.492V66.126Z" fill="#FCF5EB"/>
<path d="M224.323 66.126H219.076V67.6793H224.323V66.126Z" fill="#FCF5EB"/>
<path opacity="0.1" d="M226.421 85.4189H199.155V175.209H226.421V85.4189Z" fill="black"/>
<path opacity="0.1" d="M223.113 100.233H202.465V175.21H223.113V100.233Z" fill="black"/>
<path opacity="0.3" d="M215.927 115.473H209.64V125.437H215.927V115.473Z" fill="black"/>
<path opacity="0.15" d="M216.542 126.593H209.025V127.767H216.542V126.593Z" fill="black"/>
<path d="M216.542 125.438H209.025V126.593H216.542V125.438Z" fill="#FDF9E5"/>
<path opacity="0.2" d="M215.937 119.223V118.068H214.916V115.473H213.762V118.068H211.834V115.473H210.68V118.068H209.659V119.223H210.68V122.16H209.659V123.315H210.68V125.427H211.834V123.315H213.762V125.427H214.916V123.315H215.937V122.16H214.916V119.223H215.937ZM213.762 122.16H211.834V119.223H213.762V122.16Z" fill="black"/>
<path opacity="0.3" d="M215.927 140.022H209.64V149.987H215.927V140.022Z" fill="black"/>
<path opacity="0.15" d="M216.542 151.143H209.025V152.317H216.542V151.143Z" fill="black"/>
<path d="M216.542 149.987H209.025V151.143H216.542V149.987Z" fill="#FDF9E5"/>
<path opacity="0.2" d="M215.937 143.773V142.618H214.916V140.022H213.762V142.618H211.834V140.022H210.68V142.618H209.659V143.773H210.68V146.709H209.659V147.865H210.68V149.977H211.834V147.865H213.762V149.977H214.916V147.865H215.937V146.709H214.916V143.773H215.937ZM213.762 146.709H211.834V143.773H213.762V146.709Z" fill="black"/>
<path d="M232.936 160.955H192.642V175.238H232.936V160.955Z" fill="#FEFAE9"/>
<path d="M233.485 159.1H192.094V160.947H233.485V159.1Z" fill="#FCF5EB"/>
<path opacity="0.1" d="M232.974 160.955H192.604V162.802H232.974V160.955Z" fill="black"/>
<path opacity="0.3" d="M203.826 165.806H199.155V170.485H203.826V165.806Z" fill="black"/>
<path opacity="0.3" d="M225.997 165.806H221.326V170.485H225.997V165.806Z" fill="black"/>
<path style="mix-blend-mode:color-burn" opacity="0.19" d="M102.465 44.2748H95.4782V41.8312H95.1756V39.3875H94.8447V39.3496C94.8447 39.0181 94.58 38.7529 94.2491 38.7529H93.5306C93.1997 38.7529 92.9349 39.0181 92.9349 39.3496V39.3875H92.604V41.8312H92.3015V63.5115H86.2318V60.8311H85.8253V58.7189H85.4944V58.681C85.4944 58.3495 85.2296 58.0843 84.8987 58.0843H84.1803C83.8493 58.0843 83.5846 58.3495 83.5846 58.681V58.7189H83.2537V60.8311H83.0646V81.337H77.0044V85.4287H78.5644V88.3554H77.9782V92.4376V93.1291H78.5644V94.3982V98.2911H71.7572V100.242H68.8737V102.335H69.5543V128.297H64.3639V130.39H64.9501V150.413H61.348L56.6775 155.158H55.5146V158.009H56.3088V175.238H232.935V162.811H232.973V160.964H233.483V159.117H231.791V85.4381H233.389V80.513H229.465V51.53H231.006V49.0674H194.579V51.53H196.12V80.513H192.451V60.8405H192.149V58.7284H191.818V58.6905C191.818 58.359 191.553 58.0938 191.222 58.0938H190.504C190.173 58.0938 189.908 58.359 189.908 58.6905V58.7284H189.577V60.8405H189.275V63.521H183.205V41.8406H182.903V39.397H182.572V39.3591C182.572 39.0276 182.307 38.7624 181.976 38.7624H181.258C180.927 38.7624 180.662 39.0276 180.662 39.3591V39.397H180.331V41.8406H180.028V44.2843H173.042" fill="url(#paint1_linear_682_22005)"/>
<path d="M44.6156 175.238V153.909V132.579H44.1328V98.2822" fill="#F4EACC"/>
<path d="M44.7178 92.4279V88.3457H43.4211V92.4279H44.7178Z" fill="#FCF4DE"/>
<path d="M79.1041 81.2715H41.0977V175.21H79.1041V81.2715Z" fill="#FDF9E5"/>
<path d="M76.7779 50.7441H43.4229V141.036H76.7779V50.7441Z" fill="#FDF9E5"/>
<path d="M76.7779 50.7441H43.4229V81.3846H76.7779V50.7441Z" fill="#FEFAE9"/>
<path d="M71.6348 50.7441H48.5566V76.8382H71.6348V50.7441Z" fill="#FDF9E5"/>
<path d="M80.7011 80.4951H39.499V85.4203H80.7011V80.4951Z" fill="#FCF5EB"/>
<path opacity="0.1" d="M79.0765 85.4189H41.1172V90.3441H79.0765V85.4189Z" fill="black"/>
<path d="M78.3086 49.0488H41.8809V51.5114H78.3086V49.0488Z" fill="#FCF5EB"/>
<path opacity="0.1" d="M76.7779 51.5117H43.4229V53.9742H76.7779V51.5117Z" fill="black"/>
<path opacity="0.3" d="M60.1011 56.2656C57.1891 56.2656 54.835 58.624 54.835 61.5412V74.413H65.3768V61.5412C65.3768 58.624 63.0132 56.2656 60.1106 56.2656H60.1011Z" fill="black"/>
<path opacity="0.3" d="M58.3142 64.4777C58.3142 61.5605 60.6778 59.2021 63.5803 59.2021C64.0341 59.2021 64.469 59.2779 64.8945 59.3915C64.072 57.554 62.2378 56.2754 60.1011 56.2754C57.1891 56.2754 54.835 58.6338 54.835 61.551V74.4229H58.3142V64.4872V64.4777Z" fill="black"/>
<path d="M53.8038 63.7861H48.5566V65.3394H53.8038V63.7861Z" fill="#FCF5EB"/>
<path d="M71.6348 63.7861H66.3877V65.3394H71.6348V63.7861Z" fill="#FCF5EB"/>
<path d="M53.8038 66.126H48.5566V67.6793H53.8038V66.126Z" fill="#FCF5EB"/>
<path d="M71.6348 66.126H66.3877V67.6793H71.6348V66.126Z" fill="#FCF5EB"/>
<path opacity="0.1" d="M73.7331 85.4189H46.4668V175.209H73.7331V85.4189Z" fill="black"/>
<path opacity="0.1" d="M70.4247 100.232H49.7764V175.209H70.4247V100.232Z" fill="black"/>
<path opacity="0.3" d="M63.2393 115.473H56.9521V125.437H63.2393V115.473Z" fill="black"/>
<path opacity="0.15" d="M63.854 126.593H56.3379V127.767H63.854V126.593Z" fill="black"/>
<path d="M63.854 125.438H56.3379V126.593H63.854V125.438Z" fill="#FDF9E5"/>
<path opacity="0.2" d="M63.2395 119.223V118.068H62.2185V115.473H61.0651V118.068H59.1364V115.473H57.983V118.068H56.9619V119.223H57.983V122.16H56.9619V123.315H57.983V125.427H59.1364V123.315H61.0651V125.427H62.2185V123.315H63.2395V122.16H62.2185V119.223H63.2395ZM61.0651 122.16H59.1364V119.223H61.0651V122.16Z" fill="black"/>
<path opacity="0.3" d="M63.2393 140.022H56.9521V149.987H63.2393V140.022Z" fill="black"/>
<path opacity="0.15" d="M63.854 151.143H56.3379V152.317H63.854V151.143Z" fill="black"/>
<path d="M63.854 149.987H56.3379V151.143H63.854V149.987Z" fill="#FDF9E5"/>
<path opacity="0.2" d="M63.2395 143.773V142.618H62.2185V140.022H61.0651V142.618H59.1364V140.022H57.983V142.618H56.9619V143.773H57.983V146.709H56.9619V147.865H57.983V149.977H59.1364V147.865H61.0651V149.977H62.2185V147.865H63.2395V146.709H62.2185V143.773H63.2395ZM61.0651 146.709H59.1364V143.773H61.0651V146.709Z" fill="black"/>
<path d="M80.2485 160.955H39.9541V175.238H80.2485V160.955Z" fill="#FEFAE9"/>
<path d="M80.7963 159.099H39.4053V160.946H80.7963V159.099Z" fill="#FCF5EB"/>
<path opacity="0.1" d="M80.286 160.955H39.916V162.802H80.286V160.955Z" fill="black"/>
<path opacity="0.3" d="M51.1372 165.805H46.4668V170.484H51.1372V165.805Z" fill="black"/>
<path opacity="0.3" d="M73.3081 165.805H68.6377V170.484H73.3081V165.805Z" fill="black"/>
<path style="mix-blend-mode:color-burn" opacity="0.19" d="M39.9533 175.238H80.2476V162.811H80.2854V160.965H80.796V159.118H79.1036V85.4384H80.7014V80.5133H76.7779V51.5303H78.3189V49.0677H41.8914V51.5303H43.4325V80.5133H39.7642V60.8409H39.4616V58.7287H39.1308V58.6908C39.1308 58.3593 38.866 58.0941 38.5351 58.0941H37.8166C37.4857 58.0941 37.221 58.3593 37.221 58.6908V58.7287H36.8901V60.8409H36.5875V63.5213H30.5179V41.8409H30.2153V39.3973H29.8844V39.3594C29.8844 39.0279 29.6197 38.7627 29.2888 38.7627H28.5703C28.2394 38.7627 27.9747 39.0279 27.9747 39.3594V39.3973H27.6437V41.8409H27.3412V44.2846H20.3545" fill="url(#paint2_linear_682_22005)"/>
<path d="M51.3485 158.559C50.9699 158.568 50.5914 158.578 50.2129 158.587L51.3485 158.559Z" fill="#6C7580"/>
<path d="M115.835 45.25C116.015 42.9958 116.667 40.8647 117.14 38.6768C117.263 38.0801 116.657 37.2182 116.194 36.6404C115.287 35.5133 116.402 35.1534 116.875 34.5661C116.988 34.4241 117.319 34.462 117.546 34.4146C118.473 34.2252 119.777 34.945 120.279 33.9789C120.685 33.1928 120.411 32.0183 120.345 31.0238C120.269 29.9819 120.486 29.4515 121.593 28.8927C122.623 28.3718 123.181 28.3339 123.692 29.1768C124.675 30.787 125.573 29.4231 126.452 29.1484C127.7 28.7601 128.4 27.5004 127.738 26.5911C126.774 25.2651 128.381 24.8389 128.211 23.9296C129.09 23.8728 129.941 23.8159 130.518 24.7063C130.688 24.9715 131.085 25.3409 131.283 25.2935C131.718 25.1893 131.567 24.6873 131.576 24.3369C131.586 23.5886 131.718 22.812 131.548 22.1016C131.208 20.6335 132.626 21.0976 133.127 20.5672C133.855 19.8095 133.997 20.9461 134.403 21.1828C135.235 21.6659 135.424 22.4805 135.33 23.4087C135.283 23.8444 135.207 24.64 135.727 24.5453C136.133 24.4695 136.814 23.9485 136.814 23.2003C136.814 21.7038 137.353 19.8758 136.691 18.7865C135.68 17.129 136.88 15.0642 135.32 13.7098C135.869 10.0159 134.526 6.44514 134.574 2.78912C134.574 2.4292 134.517 1.94614 134.706 1.73777C135.094 1.32102 135.368 0.658005 136.133 0.695891C136.72 0.724306 136.965 1.20736 137.268 1.55781C137.901 2.29659 137.23 3.33846 137.618 4.02041C138.062 4.79708 138.686 5.20435 137.797 6.17044C137.126 6.90922 137.277 8.30155 137.646 8.99297C138.336 10.2811 138.261 11.5408 138.317 12.8479C138.327 13.0468 138.554 13.2362 138.686 13.4257C138.809 13.2267 139.036 13.0278 139.036 12.8289C139.036 11.9291 139.802 11.6071 140.284 11.1051C141.135 10.2053 142.515 10.5274 142.77 11.6829C142.874 12.1565 142.884 12.6964 142.77 13.1699C142.241 15.4336 144.189 16.5892 145.011 18.2372C145.323 18.8718 145.966 18.8623 146.533 18.313C146.987 17.8773 147.157 17.3563 147.394 16.7975C147.621 16.2387 148.178 15.4336 149.114 15.6894C149.861 15.8977 150.731 17.4795 150.22 18.1236C149.341 19.2507 149.578 20.4157 149.54 21.5996C149.53 22.0353 149.379 22.3668 149.001 22.3858C148.689 22.4047 148.084 22.1774 148.074 22.0448C148.027 20.6335 147.469 20.5672 146.486 21.3344C146.306 21.4765 146.089 21.5712 145.881 21.6659C144.305 22.4299 143.773 23.6391 144.283 25.2935C144.349 25.5208 144.302 25.786 144.283 26.0418C144.255 26.4111 144.321 26.7427 144.737 26.8184C144.803 26.8279 144.983 26.449 145.03 26.2217C145.276 25.0757 146.004 24.5452 147.129 24.6779C148.245 24.8105 148.604 25.5303 148.84 26.6479C149.162 28.2202 149.341 28.1823 151.998 28.5517C152.083 28.5612 152.178 28.5328 152.263 28.5233C152.442 31.2795 156.46 30.1524 156.706 32.9276C156.772 33.6569 157.623 34.3767 157.935 34.3957C158.54 34.4335 159.259 34.2915 159.722 34.5756C160.1 34.8124 160.904 35.0113 160.252 36.1574C158.937 38.4968 159.694 41.0636 160.507 43.4505C160.677 43.943 160.677 44.3787 160.753 44.8428" fill="#F1E6C4"/>
<path d="M115.835 45.25C116.015 42.9958 116.667 40.8647 117.14 38.6768C117.263 38.0801 116.657 37.2182 116.194 36.6404C115.287 35.5133 116.402 35.1534 116.875 34.5661C116.988 34.4241 117.319 34.462 117.546 34.4146C118.473 34.2252 119.777 34.945 120.279 33.9789C120.685 33.1928 120.411 32.0183 120.345 31.0238C120.269 29.9819 120.486 29.4515 121.593 28.8927C122.623 28.3718 123.181 28.3339 123.692 29.1768C124.675 30.787 125.573 29.4231 126.452 29.1484C127.7 28.7601 128.4 27.5004 127.738 26.5911C126.774 25.2651 128.381 24.8389 128.211 23.9296C129.09 23.8728 129.941 23.8159 130.518 24.7063C130.688 24.9715 131.085 25.3409 131.283 25.2935C131.718 25.1893 131.567 24.6873 131.576 24.3369C131.586 23.5886 131.718 22.812 131.548 22.1016C131.208 20.6335 132.626 21.0976 133.127 20.5672C133.855 19.8095 133.997 20.9461 134.403 21.1828C135.235 21.6659 135.424 22.4805 135.33 23.4087C135.283 23.8444 135.207 24.64 135.727 24.5453C136.133 24.4695 136.814 23.9485 136.814 23.2003C136.814 21.7038 137.353 19.8758 136.691 18.7865C135.68 17.129 136.88 15.0642 135.32 13.7098C135.869 10.0159 134.526 6.44514 134.574 2.78912C134.574 2.4292 134.517 1.94614 134.706 1.73777C135.094 1.32102 135.368 0.658005 136.133 0.695891C136.72 0.724306 136.965 1.20736 137.268 1.55781C137.901 2.29659 137.23 3.33846 137.618 4.02041C138.062 4.79708 138.686 5.20435 137.797 6.17044C137.126 6.90922 137.277 8.30155 137.646 8.99297C138.336 10.2811 138.261 11.5408 138.317 12.8479C138.327 13.0468 138.554 13.2362 138.686 13.4257C138.809 13.2267 139.036 13.0278 139.036 12.8289C139.036 11.9291 139.802 11.6071 140.284 11.1051C141.135 10.2053 142.515 10.5274 142.77 11.6829C142.874 12.1565 142.884 12.6964 142.77 13.1699C142.241 15.4336 144.189 16.5892 145.011 18.2372C145.323 18.8718 145.966 18.8623 146.533 18.313C146.987 17.8773 147.157 17.3563 147.394 16.7975C147.621 16.2387 148.178 15.4336 149.114 15.6894C149.861 15.8977 150.731 17.4795 150.22 18.1236C149.341 19.2507 149.578 20.4157 149.54 21.5996C149.53 22.0353 149.379 22.3668 149.001 22.3858C148.689 22.4047 148.084 22.1774 148.074 22.0448C148.027 20.6335 147.469 20.5672 146.486 21.3344C146.306 21.4765 146.089 21.5712 145.881 21.6659C144.305 22.4299 143.773 23.6391 144.283 25.2935C144.349 25.5208 144.302 25.786 144.283 26.0418C144.255 26.4111 144.321 26.7427 144.737 26.8184C144.803 26.8279 144.983 26.449 145.03 26.2217C145.276 25.0757 146.004 24.5452 147.129 24.6779C148.245 24.8105 148.604 25.5303 148.84 26.6479C149.162 28.2202 149.341 28.1823 151.998 28.5517C152.083 28.5612 152.178 28.5328 152.263 28.5233C152.442 31.2795 156.46 30.1524 156.706 32.9276C156.772 33.6569 157.623 34.3767 157.935 34.3957C158.54 34.4335 159.259 34.2915 159.722 34.5756C160.1 34.8124 160.904 35.0113 160.252 36.1574C158.937 38.4968 159.694 41.0636 160.507 43.4505C160.677 43.943 160.677 44.3787 160.753 44.8428" stroke="#9A76FF" stroke-width="0.25" stroke-miterlimit="10"/>
<path d="M132.001 32.1601H132.333C132.266 31.9707 132.228 31.7529 132.115 31.5824C131.992 31.3835 131.765 31.4309 131.67 31.7245C131.642 31.8287 131.878 32.0086 133.127 32.9273C132.995 32.7 132.891 32.3496 132.654 32.1791C132.37 31.9707 132.247 32.1507 132.314 32.5106C132.38 32.9179 132.172 33.4293 132.768 33.5714C132.825 33.5809 132.967 33.2209 131.992 32.1601H132.001Z" fill="#F1E6C4" stroke="#9A76FF" stroke-width="0.25" stroke-miterlimit="10"/>
<path d="M154.022 41.291C153.994 39.4535 153.483 38.9231 151.658 38.9136C142.715 38.8947 133.771 38.8947 124.827 38.9136C123.22 38.9136 122.643 39.4819 122.624 41.0731" fill="#F1E6C4"/>
<path d="M154.022 41.291C153.994 39.4535 153.483 38.9231 151.658 38.9136C142.715 38.8947 133.771 38.8947 124.827 38.9136C123.22 38.9136 122.643 39.4819 122.624 41.0731" stroke="#9A76FF" stroke-width="0.25" stroke-miterlimit="10"/>
<path d="M137.921 35.9112C131.454 35.9112 124.987 35.9112 118.52 35.9112C118.038 35.9112 117.509 35.8069 117.376 36.4794C117.263 37.0667 117.745 37.3224 118.029 37.7013C118.605 38.4495 119.39 38.1369 120.09 38.1369C124.571 38.1653 129.043 38.1464 133.524 38.1464C141.362 38.1464 149.2 38.1464 157.038 38.1275C157.567 38.1275 158.285 38.4779 158.531 37.5403C158.758 36.6973 158.248 35.9017 157.331 35.9017C150.864 35.8922 144.397 35.9017 137.93 35.9017L137.921 35.9112Z" fill="#F1E6C4" stroke="#9A76FF" stroke-width="0.25" stroke-miterlimit="10"/>
<path d="M143.555 18.4749C143.555 16.9689 142.845 16.751 141.616 17.1394C139.83 17.7077 139.083 19.3557 137.769 20.3976C137.561 20.5586 137.561 21.0701 137.579 21.411C137.665 23.8263 137.39 26.1752 136.889 28.5526C136.596 29.9639 136.946 31.4604 135.462 32.4644C135.084 32.7201 135.225 33.4399 135.745 33.6388C136.18 33.7998 136.558 33.6672 136.842 33.0611C137.769 31.0815 139.3 29.4429 139.915 27.2645C140.075 26.6867 140.832 25.7111 141.73 26.9046C141.872 27.094 142.42 26.8288 142.713 27.1982C142.883 27.4255 143.148 27.8801 143.469 27.3402C143.583 27.1603 143.611 26.7057 143.526 26.6488C142.013 25.8153 143.157 24.1862 142.392 22.9928C141.645 21.8183 142.902 20.4828 143.347 19.2421C143.46 18.9106 143.517 18.5601 143.536 18.4749H143.555Z" fill="#F1E6C4" stroke="#9A76FF" stroke-width="0.25" stroke-miterlimit="10"/>
<path d="M158.512 41.5934C158.512 41.1009 158.682 40.5136 158.483 40.1158C157.926 38.9981 156.886 38.8371 155.704 38.875C154.437 38.9129 154.796 39.7654 154.777 40.4189C154.749 41.906 154.777 43.393 154.777 44.8895" fill="#F1E6C4"/>
<path d="M158.512 41.5934C158.512 41.1009 158.682 40.5136 158.483 40.1158C157.926 38.9981 156.886 38.8371 155.704 38.875C154.437 38.9129 154.796 39.7654 154.777 40.4189C154.749 41.906 154.777 43.393 154.777 44.8895" stroke="#9A76FF" stroke-width="0.25" stroke-miterlimit="10"/>
<path d="M121.838 40.6463C121.809 39.3297 120.977 38.9509 119.238 38.8751C117.687 38.8088 118.16 39.8507 118.131 40.6084C118.084 42.0954 118.122 43.5824 118.122 45.0694" fill="#F1E6C4"/>
<path d="M121.838 40.6463C121.809 39.3297 120.977 38.9509 119.238 38.8751C117.687 38.8088 118.16 39.8507 118.131 40.6084C118.084 42.0954 118.122 43.5824 118.122 45.0694" stroke="#9A76FF" stroke-width="0.25" stroke-miterlimit="10"/>
<path d="M133.023 30.6643C135.236 30.6833 135.255 30.6833 134.65 28.126C134.527 27.5956 134.65 27.2356 135.009 26.8378C136.002 25.7675 134.81 25.3129 134.281 24.8109C133.837 24.3847 132.418 25.1803 132.352 25.9096C132.258 27.0178 132.57 28.2207 132.258 29.2436C131.946 30.2665 131.293 31.0148 133.014 30.6643H133.023Z" fill="#F1E6C4" stroke="#9A76FF" stroke-width="0.25" stroke-miterlimit="10"/>
<path d="M127.502 34.4051C128.485 34.4051 129.478 34.4051 130.461 34.4051C130.943 34.4051 131.52 34.5093 131.558 33.8179C131.577 33.5148 131.406 33.0412 131.17 32.8992C130.556 32.5298 130.395 31.1754 129.374 31.791C128.268 32.454 127.265 32.6529 126.046 32.1793C125.564 31.9899 123.361 33.5622 123.503 33.8937C123.938 34.9356 124.921 34.2347 125.658 34.3673C126.254 34.4715 126.887 34.3862 127.502 34.3862V34.4051Z" fill="#F1E6C4" stroke="#9A76FF" stroke-width="0.25" stroke-miterlimit="10"/>
<path d="M147.752 29.1666C145.105 29.1193 144.226 29.7728 143.063 32.226C142.789 32.8038 143.29 32.927 143.328 32.8891C144.576 31.6009 146.741 32.8606 147.837 31.241C148.244 30.6442 148.821 30.6064 149.454 30.6632C149.823 30.6916 150.248 30.5969 150.173 30.218C150.116 29.9149 149.681 29.6876 149.426 29.4224C148.906 28.8825 148.253 29.3182 147.752 29.1666Z" fill="#F1E6C4" stroke="#9A76FF" stroke-width="0.25" stroke-miterlimit="10"/>
<path d="M148.67 34.404C149.785 34.404 150.901 34.423 152.007 34.3851C152.168 34.3851 152.329 34.1199 152.48 33.9873C152.395 33.9021 152.31 33.7411 152.215 33.7411C151.563 33.7411 151.1 33.4285 150.674 32.9549C149.672 31.8088 148.632 31.7994 147.62 32.9549C147.204 33.4379 146.911 33.76 146.259 33.1064C145.947 32.7939 145.427 33.5232 145.295 33.8358C144.935 34.6882 145.739 34.3757 146.06 34.3946C146.921 34.4514 147.791 34.4135 148.66 34.4135L148.67 34.404Z" fill="#F1E6C4" stroke="#9A76FF" stroke-width="0.25" stroke-miterlimit="10"/>
<path d="M137.325 11.2939C137.155 11.3981 136.853 11.5023 136.843 11.6065C136.815 12.8473 136.682 14.107 136.862 15.3194C137.023 16.437 137.514 17.5167 137.864 18.606C138.649 17.8672 139.424 17.1189 140.237 16.4086C140.672 16.0202 140.398 15.8592 140.076 15.6982C139.982 15.6508 139.821 15.7172 139.708 15.6888C137.675 15.1205 137.694 15.111 137.562 13.0841C137.524 12.4968 137.807 11.8528 137.325 11.2939Z" fill="#F1E6C4" stroke="#9A76FF" stroke-width="0.25" stroke-miterlimit="10"/>
<path d="M126.953 31.4392C127.889 31.1172 128.75 30.35 129.884 30.6531C129.998 30.6815 130.13 30.672 130.244 30.6531C130.357 30.6341 130.489 30.6152 130.565 30.5489C131.123 30.0564 130.886 29.3744 130.792 28.844C130.707 28.3136 130.007 28.2094 129.648 28.522C128.75 29.2892 127.662 29.6018 126.613 30.0374C126.178 30.2174 126.329 30.6815 126.377 31.013C126.396 31.1645 126.717 31.2782 126.944 31.4392H126.953Z" fill="#F1E6C4" stroke="#9A76FF" stroke-width="0.25" stroke-miterlimit="10"/>
<path d="M153.681 31.4033C153.511 31.5738 153.199 31.9337 152.84 32.2273C152.32 32.6535 152.84 32.8146 153.029 33.0229C153.445 33.487 153.861 33.9795 154.362 34.3205C154.57 34.4626 155.166 34.3868 155.326 34.1974C155.742 33.6954 155.695 32.9566 155.402 32.483C155.118 32.0189 154.75 31.4033 153.691 31.4033H153.681Z" fill="#F1E6C4" stroke="#9A76FF" stroke-width="0.25" stroke-miterlimit="10"/>
<path d="M121.839 32.1409C122.047 32.605 121.46 33.4669 122.34 33.4764C122.643 33.4764 123.362 32.8986 123.372 32.1693C123.372 31.44 122.69 30.8622 122.359 30.8527C121.422 30.8148 122.075 31.7052 121.848 32.1409H121.839Z" fill="#F1E6C4" stroke="#9A76FF" stroke-width="0.25" stroke-miterlimit="10"/>
<path d="M146.401 19.4305C145.768 19.4305 145.399 19.4589 145.04 19.4305C144.576 19.3737 144.378 19.6389 144.312 20.0178C144.274 20.2356 144.33 20.4914 144.434 20.6903C144.652 21.0976 145.115 21.0123 145.408 20.9081C145.72 20.7945 145.909 20.3872 146.212 20.2072C146.515 20.0178 147.252 20.5008 147.091 19.6673C147.063 19.5158 146.477 19.4684 146.392 19.44L146.401 19.4305Z" fill="#F1E6C4" stroke="#9A76FF" stroke-width="0.25" stroke-miterlimit="10"/>
<path d="M140.662 14.5429C141.38 13.7283 141.995 13.3305 141.948 13.0274C141.891 12.6295 141.314 12.3075 140.964 11.957C140.662 12.3927 139.868 12.5253 140.019 13.2263C140.114 13.6715 140.426 14.0693 140.662 14.5429Z" fill="#F1E6C4" stroke="#9A76FF" stroke-width="0.25" stroke-miterlimit="10"/>
<path d="M142.062 30.2185C141.92 29.7166 142.327 28.6273 141.816 28.6368C140.747 28.6557 141.485 29.7165 141.333 30.2943C141.21 30.7489 141.296 31.2699 141.324 31.7624C141.324 31.8571 141.494 32.0276 141.551 32.0181C141.731 31.9708 142.024 31.8666 142.034 31.7624C142.091 31.2794 142.053 30.7774 142.053 30.2185H142.062Z" fill="#F1E6C4" stroke="#9A76FF" stroke-width="0.25" stroke-miterlimit="10"/>
<path d="M148.106 26.4776C147.755 26.1651 147.443 25.6725 147.046 25.5873C146.279 25.4358 146.582 26.1461 146.563 26.506C146.544 26.9038 146.355 27.5763 147.008 27.5195C147.377 27.4816 147.689 26.8943 148.115 26.4776H148.106Z" fill="#F1E6C4" stroke="#9A76FF" stroke-width="0.25" stroke-miterlimit="10"/>
<path d="M129.081 24.7822C128.655 24.8012 128.523 25.0853 128.608 25.4357C128.731 25.8998 128.182 26.7143 129.081 26.7522C129.403 26.7617 129.753 26.1366 130.094 25.7956C129.753 25.4547 129.422 25.1232 129.081 24.7822Z" fill="#F1E6C4" stroke="#9A76FF" stroke-width="0.25" stroke-miterlimit="10"/>
<path d="M133.355 23.8169C133.781 23.7979 133.913 23.5138 133.828 23.1633C133.705 22.6992 134.254 21.8847 133.355 21.8468C133.033 21.8373 132.683 22.4624 132.343 22.8034C132.683 23.1444 133.015 23.4759 133.355 23.8169Z" fill="#F1E6C4" stroke="#9A76FF" stroke-width="0.25" stroke-miterlimit="10"/>
<path d="M136.816 3.71745C136.853 2.70397 136.645 2.14515 136.475 2.23986C136.077 2.47666 135.462 2.94077 135.509 3.18703C135.614 3.65115 136.125 4.02054 136.465 4.42782L136.806 3.72693L136.816 3.71745Z" fill="#F1E6C4" stroke="#9A76FF" stroke-width="0.25" stroke-miterlimit="10"/>
<path d="M152.415 31.0995C152.339 30.9764 152.254 30.7017 152.131 30.6828C151.667 30.607 151.109 30.5691 151.062 31.2321C151.043 31.5352 151.279 31.8477 151.402 32.1603L152.415 31.109V31.0995Z" fill="#F1E6C4" stroke="#9A76FF" stroke-width="0.25" stroke-miterlimit="10"/>
<path d="M148.483 18.549C148.994 18.3312 148.767 17.9145 148.767 17.583C148.767 17.4882 148.407 17.2799 148.312 17.3272C147.886 17.5166 148.047 17.9523 148.076 18.2838C148.076 18.3975 148.369 18.4827 148.492 18.5585L148.483 18.549Z" fill="#F1E6C4" stroke="#9A76FF" stroke-width="0.25" stroke-miterlimit="10"/>
<path d="M130.782 27.0089L131.218 27.6624C131.341 27.3499 131.53 27.0468 131.568 26.7343C131.587 26.5638 131.341 26.3554 131.218 26.166L130.782 27.0089Z" fill="#F1E6C4" stroke="#9A76FF" stroke-width="0.25" stroke-miterlimit="10"/>
<path d="M137.514 33.7521L137.949 34.4056C138.072 34.0931 138.261 33.79 138.299 33.4775C138.318 33.307 138.072 33.0986 137.949 32.9092L137.514 33.7521Z" fill="#F1E6C4" stroke="#9A76FF" stroke-width="0.25" stroke-miterlimit="10"/>
<path d="M133.939 32.6423L134.204 32.9075C134.29 32.737 134.403 32.5854 134.441 32.4055C134.45 32.3392 134.29 32.2444 134.204 32.1592L133.939 32.6423Z" fill="#F1E6C4" stroke="#9A76FF" stroke-width="0.25" stroke-miterlimit="10"/>
<path d="M139.811 31.7909C139.726 31.7056 139.631 31.5446 139.565 31.5541C139.385 31.592 139.224 31.7056 139.063 31.7909C139.149 31.8761 139.243 32.0371 139.31 32.0277C139.489 31.9898 139.65 31.8761 139.811 31.7909Z" fill="#F1E6C4" stroke="#9A76FF" stroke-width="0.25" stroke-miterlimit="10"/>
<path d="M136.56 5.83928L136.825 5.57409C136.655 5.48885 136.503 5.3752 136.323 5.33731C136.257 5.32784 136.162 5.48885 136.077 5.57409L136.56 5.83928Z" fill="#F1E6C4" stroke="#9A76FF" stroke-width="0.25" stroke-miterlimit="10"/>
<path d="M41.4205 78.9034C41.4205 78.9034 4.91712 78.0604 1.59863 100.783H42.0161L41.4205 78.9034Z" fill="#F4EACC" stroke="#DDD999" stroke-miterlimit="10"/>
<path d="M7.55488 100.203H1.65527V175.208H7.55488V100.203Z" fill="#F7EDD0"/>
<path d="M7.83822 100.203H1.35254V102.296H7.83822V100.203Z" fill="#FCF4DE"/>
<path opacity="0.15" d="M7.55488 102.297H1.65527V103.907H7.55488V102.297Z" fill="black"/>
<path d="M7.55488 129.774H1.65527V175.209H7.55488V129.774Z" fill="#F8EFD5"/>
<path d="M7.55488 155.547H1.65527V175.21H7.55488V155.547Z" fill="#FBF2DA"/>
<path d="M7.83822 153.983H1.35254V156.076H7.83822V153.983Z" fill="#FCF4DE"/>
<path opacity="0.15" d="M7.55488 156.076H1.65527V157.393H7.55488V156.076Z" fill="black"/>
<path d="M11.0049 156.343H25.0636V157.006H11.0049" fill="#F7EDD0"/>
<path opacity="0.15" d="M11.0049 157.005H25.0636V157.658H11.0049" fill="black"/>
<path d="M23.6454 130.57C23.5697 127.946 18.039 125.834 18.039 125.834C18.039 125.834 12.5083 127.946 12.4326 130.57V156.342H23.6643V130.57H23.6454Z" fill="#FCF4DE"/>
<path d="M21.8387 131.336C21.782 129.404 18.038 127.851 18.038 127.851C18.038 127.851 14.2846 129.413 14.2373 131.336V156.341H21.8481V131.336H21.8387Z" fill="#F1EDD5"/>
<path d="M21.8394 132.36H14.1719V132.824H21.8394V132.36Z" fill="#C7B6F5"/>
<path d="M21.8394 135.665H14.1719V136.129H21.8394V135.665Z" fill="#C7B6F5"/>
<path d="M21.8394 138.971H14.1719V139.435H21.8394V138.971Z" fill="#C7B6F5"/>
<path d="M21.8394 142.276H14.1719V142.74H21.8394V142.276Z" fill="#C7B6F5"/>
<path d="M21.8394 145.573H14.1719V146.037H21.8394V145.573Z" fill="#C7B6F5"/>
<path d="M21.8394 148.879H14.1719V149.343H21.8394V148.879Z" fill="#C7B6F5"/>
<path d="M21.8394 152.184H14.1719V152.648H21.8394V152.184Z" fill="#C7B6F5"/>
<path d="M21.8394 155.489H14.1719V155.953H21.8394V155.489Z" fill="#C7B6F5"/>
<path d="M19.9961 156.342V128.922L20.649 129.414V156.342H19.9961Z" fill="#C7B6F5"/>
<path d="M15.3633 156.341V129.47L16.0165 128.959V156.341H15.3633Z" fill="#C7B6F5"/>
<path opacity="0.15" d="M16.4523 131.999C16.4901 130.521 18.693 129.262 19.7329 128.75C18.8537 128.191 18.0312 127.841 18.0312 127.841C18.0312 127.841 14.2777 129.404 14.2305 131.326V156.331H16.4523V131.989V131.999Z" fill="black"/>
<path opacity="0.15" d="M16.1289 131.895C16.1951 129.821 19.6649 128.069 21.1114 127.425C19.6176 126.449 18.0293 125.843 18.0293 125.843C18.0293 125.843 12.4985 127.955 12.4229 130.579V156.351H16.1289V131.905V131.895Z" fill="black"/>
<path d="M26.9824 156.343H41.0504V157.006H26.9824" fill="#F7EDD0"/>
<path opacity="0.15" d="M26.9824 157.005H41.0504V157.658H26.9824" fill="black"/>
<path d="M39.6232 130.57C39.5475 127.946 34.0167 125.834 34.0167 125.834C34.0167 125.834 28.4858 127.946 28.4102 130.57V156.342H39.642V130.57H39.6232Z" fill="#FCF4DE"/>
<path d="M37.8171 131.336C37.7604 129.404 34.0165 127.851 34.0165 127.851C34.0165 127.851 30.2631 129.413 30.2158 131.336V156.341H37.8266V131.336H37.8171Z" fill="#F1EDD5"/>
<path d="M37.817 132.36H30.1494V132.824H37.817V132.36Z" fill="#C7B6F5"/>
<path d="M37.817 135.665H30.1494V136.129H37.817V135.665Z" fill="#C7B6F5"/>
<path d="M37.817 138.971H30.1494V139.435H37.817V138.971Z" fill="#C7B6F5"/>
<path d="M37.817 142.276H30.1494V142.74H37.817V142.276Z" fill="#C7B6F5"/>
<path d="M37.817 145.573H30.1494V146.037H37.817V145.573Z" fill="#C7B6F5"/>
<path d="M37.817 148.879H30.1494V149.343H37.817V148.879Z" fill="#C7B6F5"/>
<path d="M37.817 152.184H30.1494V152.648H37.817V152.184Z" fill="#C7B6F5"/>
<path d="M37.817 155.489H30.1494V155.953H37.817V155.489Z" fill="#C7B6F5"/>
<path d="M35.9736 156.342V128.922L36.6361 129.414V156.342H35.9736Z" fill="#C7B6F5"/>
<path d="M31.3418 156.341V129.47L31.9949 128.959V156.341H31.3418Z" fill="#C7B6F5"/>
<path opacity="0.15" d="M32.4376 131.999C32.4754 130.521 34.6783 129.262 35.7183 128.75C34.839 128.191 34.0165 127.841 34.0165 127.841C34.0165 127.841 30.2631 129.404 30.2158 131.326V156.331H32.4376V131.989V131.999Z" fill="black"/>
<path opacity="0.15" d="M32.1064 131.895C32.1726 129.821 35.6423 128.069 37.0888 127.425C35.595 126.449 34.0067 125.843 34.0067 125.843C34.0067 125.843 28.476 127.955 28.4004 130.579V156.351H32.1064V131.905V131.895Z" fill="black"/>
<path opacity="0.15" d="M8.36756 102.297H7.55371V175.209H8.36756V102.297Z" fill="black"/>
<path d="M7.83822 128.269H1.35254V130.362H7.83822V128.269Z" fill="#FCF4DE"/>
<path opacity="0.15" d="M7.55488 130.362H1.65527V132.01H7.55488V130.362Z" fill="black"/>
<path d="M20.515 173.23H14.417V161.836C15.3246 161.57 16.3457 161.76 17.3573 161.722C18.3878 161.684 19.4183 161.722 20.515 161.722V173.23Z" fill="#91989F"/>
<path d="M36.1913 161.296C36.4182 161.296 36.6357 161.296 36.8626 161.296C36.9382 161.457 37.08 161.618 37.08 161.779C37.0895 165.406 37.0895 169.034 37.0895 172.86H31.2845C31.1333 172.33 31.3696 172.055 31.6533 171.819C32.6554 171.411 33.7238 171.061 33.2321 168.977C32.9579 168.049 32.1638 168.21 31.6154 167.784C31.1711 167.367 31.0765 166.912 31.5587 166.42C32.0976 165.965 32.8539 166.05 33.1943 165.122C33.5819 163.986 33.0619 162.783 33.3266 161.627C33.7332 160.794 34.1775 160.898 34.6408 161.532C35.1986 162.669 34.707 164.147 35.3877 165.501C36.4371 164.563 35.9266 163.209 35.9833 162.072C35.9928 161.779 36.0684 161.523 36.2102 161.305L36.1913 161.296Z" fill="#7C848D"/>
<path d="M36.1912 161.296V161.902C35.5956 162.641 35 162.508 34.4044 161.902C34.4327 161.334 34.1491 161.258 33.8465 161.305C33.6196 161.343 33.4589 161.533 33.5062 161.902C32.1164 162.982 32.5702 165.321 31.7193 166.77C31.5018 166.752 31.3033 166.808 31.3695 167.178C31.3884 167.282 31.5964 167.32 31.7193 167.386C32.5702 169.006 32.5702 170.635 31.7193 172.254C31.4073 172.236 31.2655 172.444 31.275 172.861C30.6699 172.861 30.84 172.226 30.8306 171.79C30.8211 168.39 30.8306 164.999 30.8306 161.609L31.5019 160.699C32.8444 160.699 34.2342 160.699 35.6239 160.699C35.9265 160.699 36.2196 160.718 36.1912 161.305V161.296Z" fill="#A3A8AF"/>
<path d="M17.9824 167.86H20.0624V172.53C19.4762 172.861 18.7671 172.625 17.9824 172.644V167.86Z" fill="#EBECED"/>
<path d="M17.9443 166.344V162.441H20.1V166.353C19.3877 167.136 18.6692 167.136 17.9443 166.353V166.344Z" fill="#EAEBED"/>
<path d="M15.3066 167.897C16.0536 167.878 16.81 167.386 17.3867 168.825V171.875C16.9518 172.851 16.1954 172.813 15.3066 172.566V167.907V167.897Z" fill="#EDEEF0"/>
<path d="M15.2588 167.196V162.47C16.0624 162.29 16.8377 161.996 17.4617 163.294C17.4617 163.635 17.4617 164.127 17.4617 164.611C17.4491 166.271 16.7148 167.13 15.2588 167.187V167.196Z" fill="#EFF0F1"/>
<path d="M31.7295 172.254V167.386H33.904C34.0269 168.92 33.9229 170.492 33.9702 172.254H31.7295Z" fill="#EFF0F1"/>
<path d="M34.4424 172.149V167.489H36.5886C36.7021 168.929 36.5981 170.492 36.6453 172.149H34.4424Z" fill="#EFF0F1"/>
<path d="M34.404 161.911H36.1909C36.4651 161.845 36.6258 162.072 36.6258 162.375C36.6447 163.559 36.6258 164.743 36.6258 165.823C36.0491 167.035 35.2833 166.893 34.3945 166.628V161.92L34.404 161.911Z" fill="#EDEEEF"/>
<path d="M31.7295 166.77V161.901H33.5164C34.1972 163.076 33.9041 164.449 33.9608 165.728C33.4786 167.177 32.5426 166.694 31.7295 166.77Z" fill="#ECEDEF"/>
<path d="M0 100.3L43.3576 100.262V102.743L0 102.781" fill="#F4EACC"/>
<path d="M42.5448 75.5869L42.5637 101.046H40.0866L40.0771 75.5869" fill="#F4EACC"/>
<path d="M231.66 175.2H266.121V100.782H231.66V175.2Z" fill="url(#paint3_linear_682_22005)"/>
<path d="M232.256 78.9034C232.256 78.9034 268.759 78.0604 272.077 100.783H231.66L232.256 78.9034Z" fill="#F4EACC" stroke="#DDD999" stroke-miterlimit="10"/>
<path d="M266.121 175.21H272.021V100.205H266.121V175.21Z" fill="#F7EDD0"/>
<path d="M265.829 102.307H272.314V100.213H265.829V102.307Z" fill="#FCF4DE"/>
<path opacity="0.15" d="M266.121 103.906H272.021V102.296H266.121V103.906Z" fill="black"/>
<path d="M266.121 175.21H272.021V129.775H266.121V175.21Z" fill="#F8EFD5"/>
<path d="M266.121 175.21H272.021V155.547H266.121V175.21Z" fill="#FBF2DA"/>
<path d="M265.829 156.086H272.314V153.993H265.829V156.086Z" fill="#FCF4DE"/>
<path opacity="0.15" d="M266.121 157.403H272.021V156.087H266.121V157.403Z" fill="black"/>
<path d="M262.672 156.343H248.604V157.006H262.672" fill="#F7EDD0"/>
<path opacity="0.15" d="M262.672 157.005H248.604V157.658H262.672" fill="black"/>
<path d="M250.029 130.57C250.104 127.946 255.635 125.834 255.635 125.834C255.635 125.834 261.166 127.946 261.242 130.57V156.342H250.01V130.57H250.029Z" fill="#FCF4DE"/>
<path d="M251.836 131.336C251.892 129.404 255.636 127.851 255.636 127.851C255.636 127.851 259.39 129.413 259.437 131.336V156.341H251.826V131.336H251.836Z" fill="#F1EDD5"/>
<path d="M251.835 132.824H259.503V132.36H251.835V132.824Z" fill="#C7B6F5"/>
<path d="M251.835 136.129H259.503V135.665H251.835V136.129Z" fill="#C7B6F5"/>
<path d="M251.835 139.435H259.503V138.97H251.835V139.435Z" fill="#C7B6F5"/>
<path d="M251.835 142.73H259.503V142.266H251.835V142.73Z" fill="#C7B6F5"/>
<path d="M251.835 146.047H259.503V145.583H251.835V146.047Z" fill="#C7B6F5"/>
<path d="M251.835 149.352H259.503V148.888H251.835V149.352Z" fill="#C7B6F5"/>
<path d="M251.835 152.648H259.503V152.184H251.835V152.648Z" fill="#C7B6F5"/>
<path d="M251.835 155.953H259.503V155.489H251.835V155.953Z" fill="#C7B6F5"/>
<path d="M253.68 156.342V128.922L253.018 129.414V156.342H253.68Z" fill="#C7B6F5"/>
<path d="M258.312 156.341V129.47L257.659 128.959V156.341H258.312Z" fill="#C7B6F5"/>
<path opacity="0.15" d="M257.215 131.999C257.177 130.521 254.975 129.262 253.935 128.75C254.814 128.191 255.636 127.841 255.636 127.841C255.636 127.841 259.39 129.404 259.437 131.326V156.331H257.215V131.989V131.999Z" fill="black"/>
<path opacity="0.15" d="M257.547 131.895C257.481 129.821 254.011 128.069 252.564 127.425C254.058 126.449 255.647 125.843 255.647 125.843C255.647 125.843 261.177 127.955 261.253 130.579V156.351H257.547V131.905V131.895Z" fill="black"/>
<path d="M246.683 156.343H232.624V157.006H246.683" fill="#F7EDD0"/>
<path opacity="0.15" d="M246.683 157.005H232.624V157.658H246.683" fill="black"/>
<path d="M234.042 130.57C234.118 127.946 239.649 125.834 239.649 125.834C239.649 125.834 245.18 127.946 245.255 130.57V156.342H234.023V130.57H234.042Z" fill="#FCF4DE"/>
<path d="M235.848 131.336C235.905 129.404 239.649 127.851 239.649 127.851C239.649 127.851 243.402 129.413 243.45 131.336V156.341H235.839V131.336H235.848Z" fill="#F1EDD5"/>
<path d="M235.848 132.824H243.516V132.36H235.848V132.824Z" fill="#C7B6F5"/>
<path d="M235.848 136.129H243.516V135.665H235.848V136.129Z" fill="#C7B6F5"/>
<path d="M235.848 139.435H243.516V138.97H235.848V139.435Z" fill="#C7B6F5"/>
<path d="M235.848 142.73H243.516V142.266H235.848V142.73Z" fill="#C7B6F5"/>
<path d="M235.848 146.047H243.516V145.583H235.848V146.047Z" fill="#C7B6F5"/>
<path d="M235.848 149.352H243.516V148.888H235.848V149.352Z" fill="#C7B6F5"/>
<path d="M235.848 152.648H243.516V152.184H235.848V152.648Z" fill="#C7B6F5"/>
<path d="M235.848 155.953H243.516V155.489H235.848V155.953Z" fill="#C7B6F5"/>
<path d="M237.693 156.342V128.922L237.04 129.414V156.342H237.693Z" fill="#C7B6F5"/>
<path d="M242.335 156.341V129.47L241.673 128.959V156.341H242.335Z" fill="#C7B6F5"/>
<path opacity="0.15" d="M241.238 131.999C241.2 130.521 238.997 129.262 237.957 128.75C238.836 128.191 239.659 127.841 239.659 127.841C239.659 127.841 243.412 129.404 243.46 131.326V156.331H241.238V131.989V131.999Z" fill="black"/>
<path opacity="0.15" d="M241.559 131.895C241.492 129.821 238.023 128.069 236.576 127.425C238.07 126.449 239.658 125.843 239.658 125.843C239.658 125.843 245.189 127.955 245.265 130.579V156.351H241.559V131.905V131.895Z" fill="black"/>
<path opacity="0.15" d="M265.307 175.21H266.121V102.298H265.307V175.21Z" fill="black"/>
<path d="M265.829 130.353H272.314V128.259H265.829V130.353Z" fill="#FCF4DE"/>
<path opacity="0.15" d="M266.121 132H272.021V130.352H266.121V132Z" fill="black"/>
<path d="M253.159 173.23H259.257V161.836C258.349 161.57 257.328 161.76 256.317 161.722C255.286 161.684 254.256 161.722 253.159 161.722V173.23Z" fill="#91989F"/>
<path d="M237.474 161.296C237.247 161.296 237.03 161.296 236.803 161.296C236.727 161.457 236.586 161.618 236.586 161.779C236.576 165.406 236.576 169.034 236.576 172.86H242.381C242.532 172.33 242.296 172.055 242.012 171.819C241.01 171.411 239.942 171.061 240.433 168.977C240.708 168.049 241.502 168.21 242.05 167.784C242.495 167.367 242.589 166.912 242.107 166.42C241.568 165.965 240.812 166.05 240.471 165.122C240.084 163.986 240.604 162.783 240.339 161.627C239.932 160.794 239.488 160.898 239.025 161.532C238.467 162.669 238.959 164.147 238.278 165.501C237.229 164.563 237.739 163.209 237.682 162.072C237.673 161.779 237.597 161.523 237.455 161.305L237.474 161.296Z" fill="#7C848D"/>
<path d="M237.474 161.296V161.902C238.069 162.641 238.665 162.508 239.26 161.902C239.232 161.334 239.516 161.258 239.818 161.305C240.045 161.343 240.206 161.533 240.159 161.902C241.548 162.982 241.095 165.321 241.945 166.77C242.163 166.752 242.361 166.808 242.295 167.178C242.276 167.282 242.068 167.32 241.945 167.386C241.095 169.006 241.095 170.635 241.945 172.254C242.257 172.236 242.399 172.444 242.39 172.861C242.995 172.861 242.825 172.226 242.834 171.79C242.844 168.39 242.834 164.999 242.834 161.609L242.163 160.699C240.82 160.699 239.431 160.699 238.041 160.699C237.738 160.699 237.445 160.718 237.474 161.305V161.296Z" fill="#A3A8AF"/>
<path d="M255.684 167.86H253.604V172.53C254.19 172.861 254.899 172.625 255.684 172.644V167.86Z" fill="#EBECED"/>
<path d="M255.722 166.344V162.441H253.566V166.353C254.279 167.136 254.997 167.136 255.722 166.353V166.344Z" fill="#EAEBED"/>
<path d="M258.359 167.897C257.612 167.878 256.856 167.386 256.279 168.825V171.875C256.714 172.851 257.471 172.813 258.359 172.566V167.907V167.897Z" fill="#EDEEF0"/>
<path d="M258.407 167.196V162.47C257.603 162.29 256.828 161.996 256.204 163.294C256.204 163.635 256.204 164.127 256.204 164.611C256.217 166.271 256.951 167.13 258.407 167.187V167.196Z" fill="#EFF0F1"/>
<path d="M241.947 172.254V167.386H239.772C239.649 168.92 239.753 170.492 239.706 172.254H241.947Z" fill="#EFF0F1"/>
<path d="M239.223 172.149V167.489H237.077C236.964 168.929 237.068 170.492 237.021 172.149H239.223Z" fill="#EFF0F1"/>
<path d="M239.261 161.911H237.475C237.2 161.845 237.04 162.072 237.04 162.375C237.021 163.559 237.04 164.743 237.04 165.823C237.616 167.035 238.382 166.893 239.271 166.628V161.92L239.261 161.911Z" fill="#EDEEEF"/>
<path d="M241.946 166.77V161.901H240.159C239.478 163.076 239.772 164.449 239.715 165.728C240.197 167.177 241.133 166.694 241.946 166.77Z" fill="#ECEDEF"/>
<path d="M273.676 100.3L230.309 100.262V102.743L273.676 102.781" fill="#F4EACC"/>
<path d="M214.086 28.7041H212.516C212.03 28.7041 211.637 29.0985 211.637 29.585V34.6712C211.637 35.1577 212.03 35.5521 212.516 35.5521H214.086C214.571 35.5521 214.965 35.1577 214.965 34.6712V29.585C214.965 29.0985 214.571 28.7041 214.086 28.7041Z" fill="#F1E6C4"/>
<path d="M213.545 26.4385H213.063C212.577 26.4385 212.184 26.8328 212.184 27.3193V28.8253C212.184 29.3118 212.577 29.7062 213.063 29.7062H213.545C214.031 29.7062 214.424 29.3118 214.424 28.8253V27.3193C214.424 26.8328 214.031 26.4385 213.545 26.4385Z" fill="#F1E6C4"/>
<path d="M213.803 18.3701H212.81V26.6767H213.803V18.3701Z" fill="#F1E6C4"/>
<path d="M206.768 50.1184V33.619C206.768 33.0413 207.231 32.5771 207.808 32.5771H218.661C219.238 32.5771 219.701 33.0413 219.701 33.619V50.1184" fill="#FCF4DE"/>
<path d="M206.645 50.1191V30.4182C206.645 30.3235 207.108 30.2383 207.684 30.2383H208.772C209.348 30.2383 209.812 30.3141 209.812 30.4182V50.1191" fill="#F4EACC"/>
<path d="M216.808 50.1191V30.4182C216.808 30.3235 217.271 30.2383 217.848 30.2383H218.935C219.512 30.2383 219.975 30.3141 219.975 30.4182V50.1191" fill="#F4EACC"/>
<path d="M215.966 49.3608V40.8648C215.966 39.0084 214.879 37.3793 214.103 36.4417C213.697 35.9491 212.941 35.9491 212.525 36.4417C211.74 37.3793 210.662 39.0084 210.662 40.8648V49.3608" fill="#FDF1DA"/>
<path opacity="0.1" d="M215.919 34.6143H210.681C210.195 34.6143 209.802 35.0086 209.802 35.4951V36.518C209.802 37.0045 210.195 37.3989 210.681 37.3989H215.919C216.404 37.3989 216.798 37.0045 216.798 36.518V35.4951C216.798 35.0086 216.404 34.6143 215.919 34.6143Z" fill="black"/>
<path d="M216.543 31.8203H209.915C209.43 31.8203 209.036 32.2147 209.036 32.7011V33.724C209.036 34.2105 209.43 34.6048 209.915 34.6048H216.543C217.028 34.6048 217.422 34.2105 217.422 33.724V32.7011C217.422 32.2147 217.028 31.8203 216.543 31.8203Z" fill="#F4EACC"/>
<path d="M209.188 25.702V25.6641C209.188 25.3326 208.923 25.0674 208.592 25.0674H207.874C207.543 25.0674 207.278 25.3326 207.278 25.6641V25.702H206.947V29.519C206.947 30.0967 207.41 30.5608 207.987 30.5608H208.479C209.055 30.5608 209.519 30.0967 209.519 29.519V25.702H209.188Z" fill="#F4EACC"/>
<path d="M219.342 25.702V25.6641C219.342 25.3326 219.077 25.0674 218.747 25.0674H218.028C217.697 25.0674 217.432 25.3326 217.432 25.6641V25.702H217.102V29.519C217.102 30.0967 217.565 30.5608 218.142 30.5608H218.633C219.21 30.5608 219.673 30.0967 219.673 29.519V25.702H219.342Z" fill="#F4EACC"/>
<path d="M213.311 27.0261C212.847 27.0261 212.469 26.6472 212.469 26.1831V25.4064C212.469 24.9423 212.847 24.5635 213.311 24.5635C213.775 24.5635 214.153 24.9423 214.153 25.4064V26.1831C214.153 26.6472 213.775 27.0261 213.311 27.0261Z" fill="#F1E6C4"/>
<path d="M213.31 19.6863C212.97 19.6863 212.695 19.4117 212.695 19.0707V18.5024C212.695 18.1614 212.97 17.8867 213.31 17.8867C213.651 17.8867 213.926 18.1614 213.926 18.5024V19.0707C213.926 19.4117 213.651 19.6863 213.31 19.6863Z" fill="#F1E6C4"/>
<path d="M60.726 28.7041H59.1566C58.671 28.7041 58.2773 29.0985 58.2773 29.585V34.6712C58.2773 35.1577 58.671 35.5521 59.1566 35.5521H60.726C61.2116 35.5521 61.6052 35.1577 61.6052 34.6712V29.585C61.6052 29.0985 61.2116 28.7041 60.726 28.7041Z" fill="#F1E6C4"/>
<path d="M60.1857 26.4385H59.7035C59.2179 26.4385 58.8242 26.8328 58.8242 27.3193V28.8253C58.8242 29.3118 59.2179 29.7062 59.7035 29.7062H60.1857C60.6713 29.7062 61.0649 29.3118 61.0649 28.8253V27.3193C61.0649 26.8328 60.6713 26.4385 60.1857 26.4385Z" fill="#F1E6C4"/>
<path d="M60.443 18.3701H59.4492V26.6767H60.443V18.3701Z" fill="#F1E6C4"/>
<path d="M53.4082 50.1184V33.619C53.4082 33.0413 53.8715 32.5771 54.4482 32.5771H65.3018C65.8785 32.5771 66.3418 33.0413 66.3418 33.619V50.1184" fill="#FCF4DE"/>
<path d="M53.2852 50.1191V30.4182C53.2852 30.3235 53.7485 30.2383 54.3252 30.2383H55.4124C55.9891 30.2383 56.4524 30.3141 56.4524 30.4182V50.1191" fill="#F4EACC"/>
<path d="M63.4385 50.1191V30.4182C63.4385 30.3235 63.9017 30.2383 64.4784 30.2383H65.5657C66.1425 30.2383 66.6057 30.3141 66.6057 30.4182V50.1191" fill="#F4EACC"/>
<path d="M62.6068 49.3608V40.8648C62.6068 39.0084 61.5195 37.3793 60.7442 36.4417C60.3377 35.9491 59.5813 35.9491 59.1653 36.4417C58.3806 37.3793 57.3027 39.0084 57.3027 40.8648V49.3608" fill="#FDF1DA"/>
<path opacity="0.1" d="M62.5593 34.6143H57.3216C56.836 34.6143 56.4424 35.0086 56.4424 35.4951V36.518C56.4424 37.0045 56.836 37.3989 57.3216 37.3989H62.5593C63.0449 37.3989 63.4386 37.0045 63.4386 36.518V35.4951C63.4386 35.0086 63.0449 34.6143 62.5593 34.6143Z" fill="black"/>
<path d="M63.1834 31.8203H56.556C56.0704 31.8203 55.6768 32.2147 55.6768 32.7011V33.724C55.6768 34.2105 56.0704 34.6048 56.556 34.6048H63.1834C63.669 34.6048 64.0626 34.2105 64.0626 33.724V32.7011C64.0626 32.2147 63.669 31.8203 63.1834 31.8203Z" fill="#F4EACC"/>
<path d="M55.8188 25.702V25.6641C55.8188 25.3326 55.5541 25.0674 55.2232 25.0674H54.5047C54.1738 25.0674 53.9091 25.3326 53.9091 25.6641V25.702H53.5781V29.519C53.5781 30.0967 54.0414 30.5608 54.6181 30.5608H55.1098C55.6865 30.5608 56.1497 30.0967 56.1497 29.519V25.702H55.8188Z" fill="#F4EACC"/>
<path d="M65.9829 25.702V25.6641C65.9829 25.3326 65.7182 25.0674 65.3873 25.0674H64.6687C64.3378 25.0674 64.0731 25.3326 64.0731 25.6641V25.702H63.7422V29.519C63.7422 30.0967 64.2055 30.5608 64.7822 30.5608H65.2738C65.8505 30.5608 66.3138 30.0967 66.3138 29.519V25.702H65.9829Z" fill="#F4EACC"/>
<path d="M59.9419 27.0261C59.4782 27.0261 59.0996 26.6472 59.0996 26.1831V25.4064C59.0996 24.9423 59.4782 24.5635 59.9419 24.5635C60.4056 24.5635 60.7841 24.9423 60.7841 25.4064V26.1831C60.7841 26.6472 60.4056 27.0261 59.9419 27.0261Z" fill="#F1E6C4"/>
<path d="M59.9424 19.6863C59.6017 19.6863 59.3271 19.4117 59.3271 19.0707V18.5024C59.3271 18.1614 59.6017 17.8867 59.9424 17.8867C60.2831 17.8867 60.5576 18.1614 60.5576 18.5024V19.0707C60.5576 19.4117 60.2831 19.6863 59.9424 19.6863Z" fill="#F1E6C4"/>
<path d="M233.182 76.8662L233.201 102.335H230.724L230.715 76.8757" fill="#F4EACC"/>
<defs>
<linearGradient id="paint0_linear_682_22005" x1="7.55371" y1="137.994" x2="42.0054" y2="137.994" gradientUnits="userSpaceOnUse">
<stop stop-color="#F1E6C6"/>
<stop offset="1" stop-color="#FFFBEE"/>
</linearGradient>
<linearGradient id="paint1_linear_682_22005" x1="144.499" y1="175.238" x2="144.499" y2="38.7529" gradientUnits="userSpaceOnUse">
<stop stop-color="#F1E6C6"/>
<stop offset="1" stop-color="#FFFBEE"/>
</linearGradient>
<linearGradient id="paint2_linear_682_22005" x1="50.58" y1="175.238" x2="50.58" y2="38.7532" gradientUnits="userSpaceOnUse">
<stop stop-color="#F1E6C6"/>
<stop offset="1" stop-color="#FFFBEE"/>
</linearGradient>
<linearGradient id="paint3_linear_682_22005" x1="266.121" y1="137.996" x2="231.669" y2="137.996" gradientUnits="userSpaceOnUse">
<stop stop-color="#F1E6C6"/>
<stop offset="1" stop-color="#FFFBEE"/>
</linearGradient>
</defs>
</svg>
